<?xml version="1.0" encoding="utf-8"?>
<svg width="800px" height="800px" viewBox="0 0 32 32" id="Layer_1" data-name="Layer 1" xmlns="http://www.w3.org/2000/svg">
  <defs>
    <filter id="shadow" x="-20%" y="-20%" width="140%" height="140%">
      <feDropShadow dx="0" dy="2" stdDeviation="2" flood-color="#000000" flood-opacity="0.3"/>
    </filter>
  </defs>
  <!-- Outer red outline pin container with drop shadow -->
  <path d="M16,2A11.0134,11.0134,0,0,0,5,13a10.8885,10.8885,0,0,0,2.2163,6.6s.3.3945.3482.4517L16,30l8.439-9.9526c.0444-.0533.3447-.4478.3447-.4478l.0015-.0024A10.8846,10.8846,0,0,0,27,13,11.0134,11.0134,0,0,0,16,2Z" fill="none" stroke="#ef4444" stroke-width="2.2" filter="url(#shadow)" />
  <!-- Construction tools inside the pin bubble (colored black) -->
  <g transform="translate(10, 7) scale(0.5)" fill="none" stroke="#000000" stroke-width="2.5" stroke-linecap="round" stroke-linejoin="round">
    <rect x="6.6" y="9.98" width="10.8" height="4.05" transform="translate(-4.97 12) rotate(-45)"/>
    <circle cx="18.68" cy="5.32" r="3.82"/>
    <circle cx="5.32" cy="18.68" r="3.82"/>
    <path d="M12,9.14,9.14,12,6.27,9.14H4.36A2.87,2.87,0,0,1,1.5,6.27V4.36l.4.4A2.1,2.1,0,0,0,4.69,5a2,2,0,0,0,.15-3L4.36,1.5H6.27A2.87,2.87,0,0,1,9.14,4.36V6.27Z"/>
    <path d="M19.64,14.86a2.87,2.87,0,0,1,2.86,2.87v1.91l-.4-.4A2.1,2.1,0,0,0,19.31,19a2,2,0,0,0-.15,3l.48.48H17.73a2.87,2.87,0,0,1-2.87-2.86V17.73L12,14.86,14.86,12l2.87,2.86Z"/>
  </g>
</svg>