<?xml version="1.0" encoding="UTF-8"?>
<svg version="1.1" xmlns="http://www.w3.org/2000/svg" width="512" height="512">
<path d="M0 0 C9.43349503 6.89502728 15.56420515 15.97928083 21.11816406 26.10009766 C24.59266247 32.41129816 28.27491886 38.583915 32 44.75 C37.54434683 53.94218336 43.01990126 63.1702659 48.4375 72.4375 C55.91198722 85.21922752 63.44446045 97.9654435 71.00292969 110.69775391 C74.40040095 116.42195305 77.79396769 122.14846508 81.1875 127.875 C82.18595947 129.5597644 82.18595947 129.5597644 83.20458984 131.27856445 C90.00156048 142.74939386 96.78339858 154.22914182 103.56347656 165.70996094 C110.37626933 177.24549866 117.19824031 188.77554391 124.02993774 200.29989624 C129.04933168 208.76728284 134.06092444 217.23922742 139.06640625 225.71484375 C143.37070772 233.00148678 147.68440262 240.28254283 152 247.5625 C159.53349922 260.27104364 167.05101018 272.98897633 174.56347656 285.70996094 C181.03390599 296.66580317 187.51178487 307.61717994 194 318.5625 C197.81899997 325.00497704 201.63771593 331.44761486 205.44921875 337.89453125 C205.9901416 338.80944336 206.53106445 339.72435547 207.08837891 340.66699219 C208.14549564 342.45715078 209.20118526 344.24815296 210.25537109 346.04003906 C213.00045829 350.70247994 215.77391666 355.344786 218.58984375 359.96484375 C219.18128174 360.94348389 219.77271973 361.92212402 220.38208008 362.93041992 C221.50442314 364.78631849 222.63514204 366.63719066 223.77612305 368.48168945 C229.02022433 377.19311588 231.57022532 385.31385807 231.4375 395.5 C231.42992676 396.3254834 231.42235352 397.1509668 231.41455078 398.00146484 C231.09603653 409.8422902 226.39565638 418.95688883 218.625 427.75 C208.63356289 436.55198031 199.10414544 441.17837712 185.61190033 441.19672108 C184.87389494 441.19907331 184.13588954 441.20142554 183.37552035 441.20384905 C180.89498543 441.21052222 178.41450309 441.21008133 175.93395996 441.20967102 C174.14049592 441.21297069 172.34703262 441.21669648 170.55357027 441.2208125 C165.6188777 441.23082888 160.68419728 441.23454872 155.74949598 441.23720181 C150.4295802 441.24110594 145.10967404 441.25068422 139.7897644 441.25941467 C126.93887568 441.27917616 114.08798618 441.28924497 101.23708606 441.29814246 C95.18487671 441.30252594 89.13266825 441.3078926 83.08045959 441.31313133 C62.96060111 441.33014341 42.84074317 441.34463745 22.7208786 441.35188007 C17.49979146 441.35378996 12.27870432 441.35571029 7.05761719 441.35766602 C5.75994669 441.35814976 4.46227619 441.3586335 3.12528235 441.3591319 C-17.89478872 441.36743169 -38.91480287 441.39276788 -59.93484908 441.42524669 C-81.51717813 441.45832234 -103.09947826 441.4763293 -124.68183279 441.47952431 C-136.7988955 441.48168895 -148.91587521 441.49043094 -161.03291321 441.51598549 C-171.35266212 441.53769936 -181.67230788 441.54573948 -191.99207705 441.53601871 C-197.25544554 441.53147603 -202.5186012 441.53335859 -207.78194046 441.55278015 C-212.60597824 441.57042661 -217.42964818 441.56940194 -222.25368994 441.55388286 C-223.99333407 441.55150905 -225.73300377 441.55581846 -227.47260886 441.56771151 C-242.9991623 441.66723511 -255.70462159 439.27702046 -267.6875 428.6875 C-276.5136059 418.66867708 -281.15431165 409.45578015 -281.3125 396.0625 C-281.34150391 395.27488281 -281.37050781 394.48726563 -281.40039062 393.67578125 C-281.51665849 382.56772858 -276.99817805 373.25075337 -271.25 364 C-270.088145 362.08227152 -268.92670597 360.16429097 -267.765625 358.24609375 C-266.84813477 356.74344971 -266.84813477 356.74344971 -265.91210938 355.21044922 C-262.55907061 349.69026512 -259.28530605 344.12315983 -256 338.5625 C-254.64007547 336.26648037 -253.27895645 333.97117109 -251.91796875 331.67578125 C-246.26928947 322.1435487 -240.63433596 312.60321505 -235 303.0625 C-227.66634416 290.64429825 -220.32438895 278.23107648 -212.97006226 265.82510376 C-208.47425711 258.24097692 -203.98334483 250.6539991 -199.5 243.0625 C-194.67429982 234.89130194 -189.83919564 226.72571216 -185 218.5625 C-177.98911962 206.73558178 -170.99130705 194.90099682 -164 183.0625 C-156.66634416 170.64429825 -149.32438895 158.23107648 -141.97006226 145.82510376 C-137.47425711 138.24097692 -132.98334483 130.6539991 -128.5 123.0625 C-123.33167321 114.31114366 -118.15205494 105.56651121 -112.96923828 96.82373047 C-108.47370879 89.24006052 -103.98319164 81.6534697 -99.5 74.0625 C-92.69338699 62.54076822 -85.88382174 51.02084079 -79.04931641 39.515625 C-77.66617189 37.1864318 -76.28586877 34.85558689 -74.90771484 32.5234375 C-72.88187101 29.09544821 -70.84744685 25.672594 -68.8125 22.25 C-68.20100098 21.21254639 -67.58950195 20.17509277 -66.95947266 19.10620117 C-59.56870804 6.71446919 -51.08591355 -1.5341724 -37 -5.9375 C-24.31345564 -9.03127268 -10.99885159 -7.03562904 0 0 Z " fill="#030201" transform="translate(281,38.9375)"/>
<path d="M0 0 C9.43349503 6.89502728 15.56420515 15.97928083 21.11816406 26.10009766 C24.59266247 32.41129816 28.27491886 38.583915 32 44.75 C37.54434683 53.94218336 43.01990126 63.1702659 48.4375 72.4375 C55.91198722 85.21922752 63.44446045 97.9654435 71.00292969 110.69775391 C74.40040095 116.42195305 77.79396769 122.14846508 81.1875 127.875 C82.18595947 129.5597644 82.18595947 129.5597644 83.20458984 131.27856445 C90.00156048 142.74939386 96.78339858 154.22914182 103.56347656 165.70996094 C110.37626933 177.24549866 117.19824031 188.77554391 124.02993774 200.29989624 C129.04933168 208.76728284 134.06092444 217.23922742 139.06640625 225.71484375 C143.37070772 233.00148678 147.68440262 240.28254283 152 247.5625 C159.53349922 260.27104364 167.05101018 272.98897633 174.56347656 285.70996094 C181.03390599 296.66580317 187.51178487 307.61717994 194 318.5625 C197.81899997 325.00497704 201.63771593 331.44761486 205.44921875 337.89453125 C205.9901416 338.80944336 206.53106445 339.72435547 207.08837891 340.66699219 C208.14549564 342.45715078 209.20118526 344.24815296 210.25537109 346.04003906 C213.00045829 350.70247994 215.77391666 355.344786 218.58984375 359.96484375 C219.18128174 360.94348389 219.77271973 361.92212402 220.38208008 362.93041992 C221.50442314 364.78631849 222.63514204 366.63719066 223.77612305 368.48168945 C229.02022433 377.19311588 231.57022532 385.31385807 231.4375 395.5 C231.42992676 396.3254834 231.42235352 397.1509668 231.41455078 398.00146484 C231.09603653 409.8422902 226.39565638 418.95688883 218.625 427.75 C208.63356289 436.55198031 199.10414544 441.17837712 185.61190033 441.19672108 C184.87389494 441.19907331 184.13588954 441.20142554 183.37552035 441.20384905 C180.89498543 441.21052222 178.41450309 441.21008133 175.93395996 441.20967102 C174.14049592 441.21297069 172.34703262 441.21669648 170.55357027 441.2208125 C165.6188777 441.23082888 160.68419728 441.23454872 155.74949598 441.23720181 C150.4295802 441.24110594 145.10967404 441.25068422 139.7897644 441.25941467 C126.93887568 441.27917616 114.08798618 441.28924497 101.23708606 441.29814246 C95.18487671 441.30252594 89.13266825 441.3078926 83.08045959 441.31313133 C62.96060111 441.33014341 42.84074317 441.34463745 22.7208786 441.35188007 C17.49979146 441.35378996 12.27870432 441.35571029 7.05761719 441.35766602 C5.75994669 441.35814976 4.46227619 441.3586335 3.12528235 441.3591319 C-17.89478872 441.36743169 -38.91480287 441.39276788 -59.93484908 441.42524669 C-81.51717813 441.45832234 -103.09947826 441.4763293 -124.68183279 441.47952431 C-136.7988955 441.48168895 -148.91587521 441.49043094 -161.03291321 441.51598549 C-171.35266212 441.53769936 -181.67230788 441.54573948 -191.99207705 441.53601871 C-197.25544554 441.53147603 -202.5186012 441.53335859 -207.78194046 441.55278015 C-212.60597824 441.57042661 -217.42964818 441.56940194 -222.25368994 441.55388286 C-223.99333407 441.55150905 -225.73300377 441.55581846 -227.47260886 441.56771151 C-242.9991623 441.66723511 -255.70462159 439.27702046 -267.6875 428.6875 C-276.5136059 418.66867708 -281.15431165 409.45578015 -281.3125 396.0625 C-281.34150391 395.27488281 -281.37050781 394.48726563 -281.40039062 393.67578125 C-281.51665849 382.56772858 -276.99817805 373.25075337 -271.25 364 C-270.088145 362.08227152 -268.92670597 360.16429097 -267.765625 358.24609375 C-266.84813477 356.74344971 -266.84813477 356.74344971 -265.91210938 355.21044922 C-262.55907061 349.69026512 -259.28530605 344.12315983 -256 338.5625 C-254.64007547 336.26648037 -253.27895645 333.97117109 -251.91796875 331.67578125 C-246.26928947 322.1435487 -240.63433596 312.60321505 -235 303.0625 C-227.66634416 290.64429825 -220.32438895 278.23107648 -212.97006226 265.82510376 C-208.47425711 258.24097692 -203.98334483 250.6539991 -199.5 243.0625 C-194.67429982 234.89130194 -189.83919564 226.72571216 -185 218.5625 C-177.98911962 206.73558178 -170.99130705 194.90099682 -164 183.0625 C-156.66634416 170.64429825 -149.32438895 158.23107648 -141.97006226 145.82510376 C-137.47425711 138.24097692 -132.98334483 130.6539991 -128.5 123.0625 C-123.33167321 114.31114366 -118.15205494 105.56651121 -112.96923828 96.82373047 C-108.47370879 89.24006052 -103.98319164 81.6534697 -99.5 74.0625 C-92.69338699 62.54076822 -85.88382174 51.02084079 -79.04931641 39.515625 C-77.66617189 37.1864318 -76.28586877 34.85558689 -74.90771484 32.5234375 C-72.88187101 29.09544821 -70.84744685 25.672594 -68.8125 22.25 C-68.20100098 21.21254639 -67.58950195 20.17509277 -66.95947266 19.10620117 C-59.56870804 6.71446919 -51.08591355 -1.5341724 -37 -5.9375 C-24.31345564 -9.03127268 -10.99885159 -7.03562904 0 0 Z M-36.95629883 29.34155273 C-39.03535503 32.10957106 -40.78201012 34.9122655 -42.51171875 37.91015625 C-42.83727249 38.47079773 -43.16282623 39.03143921 -43.49824524 39.60906982 C-44.19911684 40.81636241 -44.89830192 42.02463539 -45.59594727 43.23379517 C-47.47505815 46.48950923 -49.3677049 49.7373139 -51.26171875 52.984375 C-51.65156952 53.65294022 -52.04142029 54.32150543 -52.44308472 55.0103302 C-56.54083943 62.01896007 -60.76487597 68.94884333 -65 75.875 C-69.67941295 83.53421121 -74.29470832 91.20979684 -78.62890625 99.07080078 C-81.94421862 105.04930983 -85.46975952 110.89645822 -89 116.75 C-94.54360069 125.9426417 -100.01989464 135.17025457 -105.4375 144.4375 C-112.91198722 157.21922752 -120.44446045 169.9654435 -128.00292969 182.69775391 C-131.40040095 188.42195305 -134.79396769 194.14846508 -138.1875 199.875 C-138.85313965 200.99817627 -139.5187793 202.12135254 -140.20458984 203.27856445 C-146.4791029 213.86767434 -152.74108086 224.46416784 -159 235.0625 C-166.33365584 247.48070175 -173.67561105 259.89392352 -181.02993774 272.29989624 C-185.52574289 279.88402308 -190.01665517 287.4710009 -194.5 295.0625 C-199.32570018 303.23369806 -204.16080436 311.39928784 -209 319.5625 C-214.95357368 329.60580773 -220.89965846 339.65349164 -226.8359375 349.70703125 C-229.59423674 354.37790042 -232.35913383 359.0448355 -235.12548828 363.7109375 C-236.76658297 366.48488627 -238.3993724 369.26359067 -240.03125 372.04296875 C-241.84795822 375.13311957 -243.69494202 378.19796331 -245.59375 381.23828125 C-250.58410666 389.11478153 -250.58410666 389.11478153 -251.52734375 398.16796875 C-250.02154566 403.5776878 -246.49638007 406.94962149 -242 410.0625 C-238.47705557 411.23681481 -235.70473409 411.19156972 -231.98458576 411.19672108 C-231.26258544 411.19907331 -230.54058511 411.20142554 -229.79670599 411.20384905 C-227.3586218 411.21054703 -224.9205908 411.21008058 -222.48249817 411.20967102 C-220.72431996 411.21296915 -218.96614251 411.2166946 -217.20796603 411.2208125 C-212.36171583 411.23084642 -207.51547802 411.23455153 -202.6692189 411.23720181 C-197.44820558 411.24110073 -192.22720211 411.25067933 -187.00619507 411.25941467 C-174.39031739 411.27919048 -161.77443889 411.28924658 -149.15854958 411.29814246 C-143.22075236 411.30252342 -137.28295604 411.30789072 -131.34515953 411.31313133 C-111.61225603 411.33014452 -91.87935308 411.34463945 -72.14644337 411.35188007 C-67.02397982 411.35379004 -61.90151627 411.35571036 -56.77905273 411.35766602 C-55.50585521 411.35814976 -54.2326577 411.3586335 -52.92087843 411.3591319 C-32.28852675 411.36743503 -11.656233 411.39277636 8.97609337 411.42524669 C30.14814049 411.45829539 51.32015814 411.47632684 72.49223119 411.47952431 C84.38392274 411.48169141 96.27552982 411.49046927 108.16719627 411.51598549 C118.2931688 411.53766255 128.41903633 411.54575765 138.54502942 411.53601871 C143.7125784 411.53146537 148.87991061 411.53342029 154.04743004 411.55278015 C158.77815078 411.5703507 163.50849566 411.56946384 168.23922006 411.55388286 C169.95057147 411.55149749 171.66194848 411.5558783 173.37326064 411.56771151 C185.29092888 411.79599271 185.29092888 411.79599271 196 407.0625 C200.20789712 402.53091848 201.37708674 399.56507912 201.29492188 393.51025391 C200.79539318 389.36433115 198.89708248 386.26917541 196.75 382.75 C196.30180908 381.98075195 195.85361816 381.21150391 195.3918457 380.41894531 C193.94810434 377.95417854 192.4764478 375.5077912 191 373.0625 C190.03959223 371.44967842 189.07995522 369.83639762 188.12109375 368.22265625 C186.1325523 364.8875119 184.13099664 361.56059228 182.12109375 358.23828125 C178.96268727 353.01251819 175.85147379 347.75970359 172.75 342.5 C171.66150759 340.65491885 170.57296472 338.80986748 169.484375 336.96484375 C168.64229492 335.53760986 168.64229492 335.53760986 167.78320312 334.08154297 C164.52860568 328.57136334 161.26375913 323.06725602 158 317.5625 C152.63700962 308.51614933 147.28143113 299.46547192 141.93359375 290.41015625 C136.95089336 281.97506885 131.95596227 273.54724015 126.95898438 265.12060547 C123.18319312 258.75192182 119.4159949 252.37829879 115.65771484 245.99926758 C109.56239664 235.65964333 109.56239664 235.65964333 103.375 225.375 C102.48941406 223.91513672 102.48941406 223.91513672 101.5859375 222.42578125 C100.17337665 220.32085683 98.9804631 218.63658236 97 217.0625 C93.06905293 216.56219765 90.8994213 216.4628858 87.5625 218.6875 C85.52613284 221.78277808 85.6580091 223.39170532 86 227.0625 C87.3249931 230.14845235 87.3249931 230.14845235 89.26171875 233.21875 C89.60377853 233.79429123 89.94583832 234.36983246 90.29826355 234.96281433 C91.4158907 236.83694754 92.55144534 238.69949054 93.6875 240.5625 C94.46952709 241.86618515 95.2502772 243.17063711 96.02978516 244.47583008 C97.60170785 247.10437589 99.18013162 249.72883031 100.76416016 252.35009766 C103.3067349 256.56273799 105.79977712 260.8038356 108.28955078 265.04785156 C111.88815537 271.18110619 115.51381945 277.29462263 119.24609375 283.34765625 C119.76252441 284.18530518 120.27895508 285.0229541 120.81103516 285.88598633 C121.78672963 287.46280379 122.76664467 289.03702024 123.75146484 290.6081543 C127 295.8459747 127 295.8459747 127 298.0625 C126.18917969 298.48660156 125.37835938 298.91070312 124.54296875 299.34765625 C118.93957958 302.31569126 113.48875627 305.3205208 108.1875 308.8125 C99.16183325 314.59985116 91.3538441 316.65877594 80.546875 314.59375 C73.67661981 312.57591281 68.20762627 308.44921718 62.52734375 304.22265625 C61.69332031 303.61292969 60.85929687 303.00320313 60 302.375 C58.88625 301.53388672 58.88625 301.53388672 57.75 300.67578125 C54.1403296 298.43047736 54.1403296 298.43047736 46 296.0625 C46 283.8525 46 271.6425 46 259.0625 C48.64 259.0625 51.28 259.0625 54 259.0625 C61.92530905 256.50469855 68.0349006 252.46496974 72 245.0625 C75.21497196 238.1413798 74.97782316 230.9537518 72.4375 223.8125 C68.91242195 216.02539378 62.37510358 211.45066928 55.80078125 206.29296875 C52.66714175 203.79742042 49.6116086 201.22248857 46.5625 198.625 C40.76801151 193.69629619 34.90305416 188.86088905 29 184.0625 C23.71127451 179.76347752 18.43977941 175.45132427 13.26025391 171.02124023 C-5.29653942 154.28102263 -5.29653942 154.28102263 -29.01171875 149.5703125 C-40.69737843 150.68587536 -49.03103125 159.11528008 -57.35546875 166.60351562 C-59.69983417 168.68337426 -62.1252521 170.65536362 -64.5625 172.625 C-68.58358091 175.89028303 -72.55345162 179.20807844 -76.5 182.5625 C-81.34954051 186.68357792 -86.25160964 190.73241483 -91.1875 194.75 C-94.87553305 197.78238273 -98.51723528 200.86756545 -102.14648438 203.9699707 C-105.69407259 206.99357971 -109.32551433 209.88054278 -113 212.75 C-118.62067267 217.31372402 -123.40151881 222.71541395 -124.23828125 230.19140625 C-124.49350764 238.56014528 -122.56889133 245.62441481 -116.875 251.9375 C-110.59201586 257.6407238 -104.34487411 259.0625 -96 259.0625 C-96 271.2725 -96 283.4825 -96 296.0625 C-98.97 297.0525 -101.94 298.0425 -105 299.0625 C-107.50604502 300.45800336 -107.50604502 300.45800336 -109.5 302.09375 C-110.2425 302.65707031 -110.985 303.22039062 -111.75 303.80078125 C-112.4925 304.38214844 -113.235 304.96351563 -114 305.5625 C-121.43070853 311.38064158 -128.29259475 315.48651749 -138 315.5 C-139.3921875 315.52900391 -139.3921875 315.52900391 -140.8125 315.55859375 C-148.73162483 314.3260829 -155.56802874 309.69605144 -162.25 305.5 C-163.79683237 304.54029587 -165.3437062 303.58065857 -166.890625 302.62109375 C-167.95700195 301.9556958 -167.95700195 301.9556958 -169.04492188 301.27685547 C-171.34807748 299.84629903 -173.66897353 298.44712972 -176 297.0625 C-174.77041407 293.03623754 -173.31976936 289.61326656 -171.12109375 286.02734375 C-170.53859863 285.06852295 -169.95610352 284.10970215 -169.35595703 283.12182617 C-168.4063208 281.57652222 -168.4063208 281.57652222 -167.4375 280 C-166.06756957 277.74564834 -164.69891494 275.49057055 -163.33203125 273.234375 C-162.97695496 272.64939743 -162.62187866 272.06441986 -162.25604248 271.4617157 C-158.66412552 265.5333968 -155.16917089 259.54981349 -151.67996216 253.56066895 C-145.5601068 243.05694427 -139.33653113 232.62444789 -133 222.25 C-128.32161232 214.590134 -123.70531736 206.91524972 -119.37109375 199.05419922 C-116.05578138 193.07569017 -112.53024048 187.22854178 -109 181.375 C-103.45640024 172.18235984 -97.98002502 162.95479145 -92.5625 153.6875 C-85.03758764 140.818623 -77.44992112 127.98833949 -69.84179688 115.16845703 C-67.05555012 110.46980496 -64.27745543 105.76635237 -61.5 101.0625 C-58.03521088 95.19556504 -54.56736036 89.33046748 -51.09375 83.46875 C-50.42102051 82.33348877 -49.74829102 81.19822754 -49.05517578 80.02856445 C-47.69545495 77.7346661 -46.3341565 75.44172491 -44.97216797 73.14916992 C-41.67722961 67.5996106 -38.40010657 62.04117028 -35.1640625 56.45703125 C-34.5659375 55.42964844 -33.9678125 54.40226562 -33.3515625 53.34375 C-32.22303379 51.40329339 -31.10037647 49.45940703 -29.984375 47.51171875 C-29.48679688 46.65835938 -28.98921875 45.805 -28.4765625 44.92578125 C-27.8280835 43.80103394 -27.8280835 43.80103394 -27.16650391 42.65356445 C-26.78155762 42.12851318 -26.39661133 41.60346191 -26 41.0625 C-25.34 41.0625 -24.68 41.0625 -24 41.0625 C-22.6940918 42.91650391 -22.6940918 42.91650391 -21.19921875 45.5390625 C-20.64121582 46.5081958 -20.08321289 47.4773291 -19.50830078 48.47583008 C-18.90743652 49.53568115 -18.30657227 50.59553223 -17.6875 51.6875 C-16.40815751 53.91310854 -15.12819696 56.13836191 -13.84765625 58.36328125 C-13.20070801 59.4920166 -12.55375977 60.62075195 -11.88720703 61.78369141 C-9.17075199 66.50322455 -6.4022107 71.19104114 -3.625 75.875 C-3.10123779 76.76010254 -2.57747559 77.64520508 -2.0378418 78.55712891 C-0.35957187 81.39285248 1.320055 84.22776848 3 87.0625 C3.63196289 88.12903809 4.26392578 89.19557617 4.91503906 90.29443359 C7.62689875 94.87094521 10.33894474 99.44734624 13.05151367 104.0234375 C19.90051932 115.57871551 26.73296635 127.14374408 33.56347656 138.70996094 C36.78231649 144.16015599 40.00251737 149.60954361 43.22412109 155.05810547 C44.46713034 157.16100234 45.70959838 159.26421916 46.95166016 161.36767578 C51.62043625 169.2743172 56.30326306 177.17242376 61 185.0625 C61.57153809 186.02494629 62.14307617 186.98739258 62.73193359 187.97900391 C64.25141246 190.53218538 65.77994651 193.07965134 67.3125 195.625 C67.96919678 196.73149902 67.96919678 196.73149902 68.63916016 197.86035156 C70.55657004 201.02212757 71.87874747 202.98166498 75 205.0625 C79.89757389 204.88916872 79.89757389 204.88916872 83.9375 202.375 C85.31221476 199.38297377 85.24208332 197.3403435 85 194.0625 C83.93632205 191.481636 83.93632205 191.481636 82.31640625 189.02734375 C81.72738525 188.06844238 81.13836426 187.10954102 80.53149414 186.12158203 C79.55684204 184.57639893 79.55684204 184.57639893 78.5625 183 C77.53270337 181.32739801 76.50296306 179.65475946 75.47581482 177.98052979 C74.75610564 176.80817236 74.03485478 175.63676012 73.31214905 174.46624756 C69.65384003 168.53435694 66.13064771 162.5263908 62.62191772 156.50518799 C60.84152479 153.45049221 59.05552826 150.39907784 57.26953125 147.34765625 C56.73867668 146.44040802 56.73867668 146.44040802 56.19709778 145.51483154 C50.45469542 135.70750525 44.6418733 125.94173302 38.84179688 116.16845703 C36.05555012 111.46980496 33.27745543 106.76635237 30.5 102.0625 C24.99610231 92.74273803 19.4796865 83.43042052 13.95898438 74.12060547 C10.18332773 67.75214887 6.41587107 61.37898612 2.65844727 54.99975586 C0.56875937 51.45623829 -1.52951448 47.91785597 -3.62939453 44.38037109 C-4.88613781 42.25505569 -6.12988584 40.12268987 -7.37109375 37.98828125 C-12.83775159 28.51383937 -12.83775159 28.51383937 -22 23.0625 C-28.78549274 22.42235918 -32.52631325 24.18069969 -36.95629883 29.34155273 Z " fill="#FCD201" transform="translate(281,38.9375)"/>
<path d="M0 0 C9.43349503 6.89502728 15.56420515 15.97928083 21.11816406 26.10009766 C24.59266247 32.41129816 28.27491886 38.583915 32 44.75 C37.54434683 53.94218336 43.01990126 63.1702659 48.4375 72.4375 C55.91198722 85.21922752 63.44446045 97.9654435 71.00292969 110.69775391 C74.40040095 116.42195305 77.79396769 122.14846508 81.1875 127.875 C82.18595947 129.5597644 82.18595947 129.5597644 83.20458984 131.27856445 C90.00156048 142.74939386 96.78339858 154.22914182 103.56347656 165.70996094 C110.37626933 177.24549866 117.19824031 188.77554391 124.02993774 200.29989624 C129.04933168 208.76728284 134.06092444 217.23922742 139.06640625 225.71484375 C143.37070772 233.00148678 147.68440262 240.28254283 152 247.5625 C159.53349922 260.27104364 167.05101018 272.98897633 174.56347656 285.70996094 C181.03390599 296.66580317 187.51178487 307.61717994 194 318.5625 C197.81899997 325.00497704 201.63771593 331.44761486 205.44921875 337.89453125 C205.9901416 338.80944336 206.53106445 339.72435547 207.08837891 340.66699219 C208.14549564 342.45715078 209.20118526 344.24815296 210.25537109 346.04003906 C213.00045829 350.70247994 215.77391666 355.344786 218.58984375 359.96484375 C219.18128174 360.94348389 219.77271973 361.92212402 220.38208008 362.93041992 C221.50442314 364.78631849 222.63514204 366.63719066 223.77612305 368.48168945 C229.02022433 377.19311588 231.57022532 385.31385807 231.4375 395.5 C231.42992676 396.3254834 231.42235352 397.1509668 231.41455078 398.00146484 C231.09603653 409.8422902 226.39565638 418.95688883 218.625 427.75 C208.63356289 436.55198031 199.10414544 441.17837712 185.61190033 441.19672108 C184.87389494 441.19907331 184.13588954 441.20142554 183.37552035 441.20384905 C180.89498543 441.21052222 178.41450309 441.21008133 175.93395996 441.20967102 C174.14049592 441.21297069 172.34703262 441.21669648 170.55357027 441.2208125 C165.6188777 441.23082888 160.68419728 441.23454872 155.74949598 441.23720181 C150.4295802 441.24110594 145.10967404 441.25068422 139.7897644 441.25941467 C126.93887568 441.27917616 114.08798618 441.28924497 101.23708606 441.29814246 C95.18487671 441.30252594 89.13266825 441.3078926 83.08045959 441.31313133 C62.96060111 441.33014341 42.84074317 441.34463745 22.7208786 441.35188007 C17.49979146 441.35378996 12.27870432 441.35571029 7.05761719 441.35766602 C5.75994669 441.35814976 4.46227619 441.3586335 3.12528235 441.3591319 C-17.89478872 441.36743169 -38.91480287 441.39276788 -59.93484908 441.42524669 C-81.51717813 441.45832234 -103.09947826 441.4763293 -124.68183279 441.47952431 C-136.7988955 441.48168895 -148.91587521 441.49043094 -161.03291321 441.51598549 C-171.35266212 441.53769936 -181.67230788 441.54573948 -191.99207705 441.53601871 C-197.25544554 441.53147603 -202.5186012 441.53335859 -207.78194046 441.55278015 C-212.60597824 441.57042661 -217.42964818 441.56940194 -222.25368994 441.55388286 C-223.99333407 441.55150905 -225.73300377 441.55581846 -227.47260886 441.56771151 C-242.9991623 441.66723511 -255.70462159 439.27702046 -267.6875 428.6875 C-276.5136059 418.66867708 -281.15431165 409.45578015 -281.3125 396.0625 C-281.34150391 395.27488281 -281.37050781 394.48726563 -281.40039062 393.67578125 C-281.51665849 382.56772858 -276.99817805 373.25075337 -271.25 364 C-270.088145 362.08227152 -268.92670597 360.16429097 -267.765625 358.24609375 C-266.84813477 356.74344971 -266.84813477 356.74344971 -265.91210938 355.21044922 C-262.55907061 349.69026512 -259.28530605 344.12315983 -256 338.5625 C-254.64007547 336.26648037 -253.27895645 333.97117109 -251.91796875 331.67578125 C-246.26928947 322.1435487 -240.63433596 312.60321505 -235 303.0625 C-227.66634416 290.64429825 -220.32438895 278.23107648 -212.97006226 265.82510376 C-208.47425711 258.24097692 -203.98334483 250.6539991 -199.5 243.0625 C-194.67429982 234.89130194 -189.83919564 226.72571216 -185 218.5625 C-177.98911962 206.73558178 -170.99130705 194.90099682 -164 183.0625 C-156.66634416 170.64429825 -149.32438895 158.23107648 -141.97006226 145.82510376 C-137.47425711 138.24097692 -132.98334483 130.6539991 -128.5 123.0625 C-123.33167321 114.31114366 -118.15205494 105.56651121 -112.96923828 96.82373047 C-108.47370879 89.24006052 -103.98319164 81.6534697 -99.5 74.0625 C-92.69338699 62.54076822 -85.88382174 51.02084079 -79.04931641 39.515625 C-77.66617189 37.1864318 -76.28586877 34.85558689 -74.90771484 32.5234375 C-72.88187101 29.09544821 -70.84744685 25.672594 -68.8125 22.25 C-68.20100098 21.21254639 -67.58950195 20.17509277 -66.95947266 19.10620117 C-59.56870804 6.71446919 -51.08591355 -1.5341724 -37 -5.9375 C-24.31345564 -9.03127268 -10.99885159 -7.03562904 0 0 Z M-50 21.0625 C-52.92095208 25.46428128 -55.52391359 30.03102195 -58.125 34.625 C-58.87413927 35.92849823 -59.62448087 37.23130614 -60.37597656 38.53344727 C-61.88367766 41.14770628 -63.38656925 43.76463095 -64.88574219 46.38378906 C-67.79154435 51.45148442 -70.76792001 56.47691945 -73.75 61.5 C-74.80099546 63.27591491 -75.85177857 65.05195552 -76.90234375 66.828125 C-77.41394043 67.69244141 -77.92553711 68.55675781 -78.45263672 69.44726562 C-80.54171574 72.97806626 -82.62770713 76.51068709 -84.71386719 80.04321289 C-90.47675097 89.80086293 -96.25113555 99.55166702 -102.02993774 109.29989624 C-106.52574289 116.88402308 -111.01665517 124.4710009 -115.5 132.0625 C-120.32570018 140.23369806 -125.16080436 148.39928784 -130 156.5625 C-137.01088038 168.38941822 -144.00869295 180.22400318 -151 192.0625 C-158.33365584 204.48070175 -165.67561105 216.89392352 -173.02993774 229.29989624 C-177.52574289 236.88402308 -182.01665517 244.4710009 -186.5 252.0625 C-191.32570018 260.23369806 -196.16080436 268.39928784 -201 276.5625 C-208.01088038 288.38941822 -215.00869295 300.22400318 -222 312.0625 C-228.31024508 322.74774323 -234.62333589 333.4312631 -240.95141602 344.10595703 C-242.3109219 346.39934632 -243.66927439 348.69340687 -245.02709961 350.98779297 C-248.28200722 356.48649746 -251.54625976 361.97904697 -254.8359375 367.45703125 C-255.4340625 368.45734375 -256.0321875 369.45765625 -256.6484375 370.48828125 C-257.76612357 372.35699167 -258.88823749 374.22306386 -260.015625 376.0859375 C-265.30253146 384.94766932 -267.68798863 392.62322077 -265.34765625 402.9375 C-262.39612624 412.05810777 -257.24396965 418.12428579 -249.08984375 423.0546875 C-243.86291699 425.57533629 -239.35657675 426.31387332 -233.56693935 426.32256222 C-232.83622198 426.32636789 -232.10550461 426.33017356 -231.35264429 426.33409455 C-228.9028657 426.34440509 -226.45331904 426.34050517 -224.00352478 426.33665466 C-222.2298202 426.34110737 -220.4561176 426.34642153 -218.68241793 426.35252339 C-213.80697837 426.36671014 -208.93160255 426.36836655 -204.05614531 426.36792648 C-198.79827087 426.36957411 -193.54042272 426.38263972 -188.28256226 426.39411926 C-176.78447787 426.41697358 -165.28641193 426.42489049 -153.78830791 426.42994571 C-146.60769994 426.43320253 -139.42709733 426.43972497 -132.24649239 426.4469471 C-112.36249813 426.46651439 -92.47850886 426.48291758 -72.59450436 426.48582363 C-71.32194494 426.4860112 -70.04938552 426.48619877 -68.7382637 426.48639202 C-66.15850103 426.48675827 -63.57873836 426.48712197 -60.99897569 426.48748314 C-59.07809478 426.48775735 -59.07809478 426.48775735 -57.1184082 426.48803711 C-55.83625628 426.48821766 -54.55410436 426.48839821 -53.23309935 426.48858423 C-32.46203382 426.49212515 -11.69107201 426.51914186 9.07995755 426.556535 C30.4091999 426.59462548 51.73839079 426.61398117 73.0676679 426.61428314 C85.04164981 426.61486758 97.01550803 426.62335079 108.98945808 426.65228081 C119.18660158 426.67680465 129.38357627 426.68407078 139.58074129 426.66903328 C144.78137635 426.66186832 149.98167816 426.66270424 155.18227577 426.68544388 C159.94898738 426.70608618 164.71511062 426.70338444 169.48181622 426.68256903 C171.20056918 426.67908416 172.91936504 426.68394138 174.63806177 426.69827347 C186.7967102 426.79307884 198.05471105 425.85517707 207.5625 417.3125 C213.22419543 411.0058013 216.07924852 403.35910611 216.3125 394.9375 C216.34988281 394.06867188 216.38726562 393.19984375 216.42578125 392.3046875 C215.35234099 384.13078458 211.04218795 377.01598778 206.75 370.125 C205.68001264 368.37429463 204.61105876 366.62295732 203.54296875 364.87109375 C202.68711182 363.47286377 202.68711182 363.47286377 201.81396484 362.04638672 C198.86438866 357.19447284 195.97550698 352.30680702 193.08605957 347.41891479 C192.05649873 345.67734848 191.02594271 343.93637465 189.99511719 342.19555664 C185.30277555 334.2703561 180.61744157 326.34101136 175.93383789 318.41064453 C171.62953297 311.12379269 167.31568993 303.84261329 163 296.5625 C155.46650078 283.85395636 147.94898982 271.13602367 140.43652344 258.41503906 C133.62373067 246.87950134 126.80175969 235.34945609 119.97006226 223.82510376 C114.95066832 215.35771716 109.93907556 206.88577258 104.93359375 198.41015625 C100.62929231 191.12351328 96.31562798 183.842439 92 176.5625 C86.63716799 167.5160553 81.28143129 158.46547218 75.93359375 149.41015625 C71.62929228 142.12351322 67.31559738 134.84245717 63 127.5625 C55.46650078 114.85395636 47.94898982 102.13602367 40.43652344 89.41503906 C37.21333999 83.9574895 33.98867653 78.50081814 30.76269531 73.04492188 C29.54006884 70.97627852 28.31810999 68.90724048 27.09667969 66.83789062 C23.07431276 60.02348113 19.04083471 53.2159235 14.99316406 46.41650391 C13.67110764 44.19180876 12.3527068 41.9649369 11.03808594 39.73583984 C9.18108041 36.58874889 7.3108765 33.44986586 5.4375 30.3125 C4.89037354 29.37865479 4.34324707 28.44480957 3.77954102 27.48266602 C-0.71785639 20.00213947 -5.84631442 13.02392583 -14.21875 9.7265625 C-28.46541729 6.32497059 -40.61290656 9.76506757 -50 21.0625 Z " fill="#010000" transform="translate(281,38.9375)"/>
<path d="M0 0 C2.99773953 1.79864372 5.77634586 3.82926724 8.5625 5.9375 C21.23880505 15.40696711 31.9172338 19.25795894 48 18 C59.78206489 15.92007945 68.48487866 10.71680034 77.625 3.25 C85.94273214 -3.27802611 94.60439115 -4.03244061 105 -3 C112.15407986 -1.37500186 117.50570362 2.61982867 123.28515625 6.97265625 C135.31310829 15.95468086 146.92950322 19.2632884 162 18 C173.61547231 16.10115254 184.00390916 8.82600255 193.66015625 2.48046875 C199.16094987 -1 199.16094987 -1 203 -1 C205.1536528 2.74556079 207.29654726 6.49716766 209.4375 10.25 C210.04916016 11.31347656 210.66082031 12.37695312 211.29101562 13.47265625 C211.87431641 14.49746094 212.45761719 15.52226562 213.05859375 16.578125 C213.59798584 17.52075195 214.13737793 18.46337891 214.69311523 19.43457031 C215.83208229 21.67037563 216.53372922 23.55018811 217 26 C216.40687012 26.11480713 215.81374023 26.22961426 215.20263672 26.34790039 C200.09219016 29.341038 187.15860386 32.79780637 174.9375 42.6484375 C167.2728911 47.99512032 158.14921884 49.72869885 149 49 C141.03931719 47.42916292 134.9742987 42.98557073 128.59765625 38.1953125 C116.10085322 28.99545435 102.24057818 26.16469095 86.92578125 28.4609375 C77.80870972 30.67192489 70.75101168 35.66696746 63.3125 41.1875 C54.10777218 47.99043001 45.4126057 49.94865488 34 49 C26.36723363 47.43492172 20.67346091 42.6865828 14.6159668 38.08325195 C2.21044271 28.75904414 -9.73637562 27.19744832 -25 28 C-34.51413433 29.40902261 -45.21027482 35.21381786 -51 43 C-51.57991403 47.14224306 -51.34549674 48.48175489 -49 52 C-44.65429528 52.7760187 -42.33793405 52.78272273 -38.49609375 50.53515625 C-35.9771453 48.71612935 -33.48858541 46.86023826 -31 45 C-23.55891789 40.47698931 -14.3852073 40.99826619 -6.0390625 42.55078125 C0.30698455 44.51414771 5.1200318 48.16227876 10.22387695 52.27685547 C21.62599693 61.43055024 32.60418637 63.79425179 47 63 C58.40474958 61.62178253 67.47172726 55.7379434 76.578125 49.12890625 C77.43921875 48.50886719 78.3003125 47.88882813 79.1875 47.25 C79.96480469 46.67765625 80.74210938 46.1053125 81.54296875 45.515625 C88.87301208 40.99407204 97.64825877 40.82179698 106 42 C113.72020764 44.46756343 119.93247273 49.28779919 126.34375 54.10546875 C136.87056288 61.61356323 148.14701884 64.39027832 161 63 C172.46328281 60.18649651 182.1173923 55.14983964 191.76171875 48.4296875 C196.84105483 45.18529482 201.91690363 43.28260047 207.75 41.875 C208.40226562 41.70613281 209.05453125 41.53726563 209.7265625 41.36328125 C215.10909992 40.03335469 220.47943722 39.44465675 226 39 C226.39678955 39.66306152 226.7935791 40.32612305 227.20239258 41.00927734 C229.07158101 44.13169311 230.94195955 47.253394 232.8125 50.375 C233.82679077 52.06894897 233.82679077 52.06894897 234.86157227 53.79711914 C238.02858617 59.08109315 241.20732862 64.35670712 244.4453125 69.59765625 C244.95473389 70.42281738 245.46415527 71.24797852 245.98901367 72.09814453 C246.93842473 73.63147619 247.89158395 75.16249479 248.84887695 76.69091797 C252 81.78133321 252 81.78133321 252 84 C112.74 84 -26.52 84 -170 84 C-168.57544852 80.43862129 -167.28115738 77.59382868 -165.34765625 74.3671875 C-164.82413574 73.48691895 -164.30061523 72.60665039 -163.76123047 71.69970703 C-162.60998281 69.78537311 -161.45659474 67.87232506 -160.30126953 65.96044922 C-157.40777161 61.14847928 -154.61548222 56.34058188 -152.08203125 51.328125 C-145.66789027 38.82175295 -145.66789027 38.82175295 -141.328125 36.68359375 C-138.22618512 36.54463402 -135.96143202 37.08191545 -133 38 C-131.57494141 38.25136719 -131.57494141 38.25136719 -130.12109375 38.5078125 C-121.40051353 40.44571922 -114.70310658 45.20258409 -107.39404297 50.1328125 C-96.36859889 57.54614711 -83.78427581 64.91781229 -70 63 C-67.24390705 61.57955419 -67.24390705 61.57955419 -66 59 C-65.33319632 55.95720628 -65.33319632 55.95720628 -66 53 C-69.24032384 49.7438697 -72.4357971 49.43661626 -76.875 48.8125 C-86.75750509 47.11780526 -94.39832441 42.02136277 -102.63671875 36.6171875 C-112.7570864 29.97918472 -122.23981798 25.95122438 -134 23 C-129.85499402 14.28606697 -125.16853067 6.13322085 -120 -2 C-114.7928293 -0.54683608 -110.78812504 1.83408694 -106.3125 4.75 C-104.89191572 5.65307525 -103.47003572 6.55411546 -102.046875 7.453125 C-101.35658203 7.88947266 -100.66628906 8.32582031 -99.95507812 8.77539062 C-87.40909401 16.63386419 -75.80660139 20.42223886 -60.8203125 17.34765625 C-51.32000366 14.47288747 -43.73837078 8.95770299 -35.75 3.25 C-24.76473782 -4.37627405 -12.36734191 -5.58284996 0 0 Z " fill="#86D8F2" transform="translate(215,351)"/>
<path d="M0 0 C8.51636481 4.64102816 13.28979904 12.46236113 17.875 20.6875 C19.10041719 22.83659097 20.32702592 24.98500285 21.5546875 27.1328125 C22.50553223 28.80585449 22.50553223 28.80585449 23.47558594 30.51269531 C26.75301161 36.23391574 30.12835594 41.89646756 33.5 47.5625 C34.85178556 49.83971135 36.20335038 52.11705376 37.5546875 54.39453125 C38.20791992 55.49490723 38.86115234 56.5952832 39.53417969 57.72900391 C42.40351819 62.5659519 45.26489883 67.40758587 48.125 72.25 C48.91535645 73.58792603 48.91535645 73.58792603 49.72167969 74.95288086 C51.81501651 78.49676709 53.90798823 82.04086889 56.00097656 85.58496094 C62.81376933 97.12049866 69.63574031 108.65054391 76.46743774 120.17489624 C81.48683168 128.64228284 86.49842444 137.11422742 91.50390625 145.58984375 C95.80820769 152.87648672 100.12187202 160.157561 104.4375 167.4375 C109.80033201 176.4839447 115.15606871 185.53452782 120.50390625 194.58984375 C124.80820772 201.87648678 129.12190262 209.15754283 133.4375 216.4375 C140.97099922 229.14604364 148.48851018 241.86397633 156.00097656 254.58496094 C162.81376933 266.12049866 169.63574031 277.65054391 176.46743774 289.17489624 C181.48683168 297.64228284 186.49842444 306.11422742 191.50390625 314.58984375 C195.12484545 320.71964009 198.75177348 326.84586205 202.38232422 332.9699707 C203.74429191 335.26741707 205.10508503 337.56554671 206.46533203 339.86401367 C209.71998615 345.36231683 212.98400405 350.85445376 216.2734375 356.33203125 C216.8715625 357.33234375 217.4696875 358.33265625 218.0859375 359.36328125 C219.20362357 361.23199167 220.32573749 363.09806386 221.453125 364.9609375 C226.74003146 373.82266932 229.12548863 381.49822077 226.78515625 391.8125 C223.91451693 400.68314512 218.7175652 407.46626479 210.4375 411.9375 C201.82244914 415.7099614 193.29219575 415.3633003 184.0735321 415.33190918 C182.29652405 415.3368015 180.51951917 415.34299288 178.74251968 415.35036707 C173.87189485 415.36674645 169.00143211 415.36445272 164.1307894 415.3589921 C158.87298009 415.35631944 153.61521375 415.37085813 148.35742188 415.38308716 C138.06146778 415.40413334 127.76557001 415.40868247 117.46959694 415.40689927 C109.09986505 415.40559124 100.73015072 415.40939789 92.36042213 415.41682434 C89.94879606 415.41892355 87.53716997 415.42102115 85.12554389 415.42311716 C83.92517853 415.42416069 82.72481316 415.42520422 81.48807309 415.42627937 C58.78993795 415.44517846 36.09183514 415.44413255 13.39369539 415.43731004 C-7.36492612 415.4317348 -28.12342421 415.45255985 -48.88201687 415.48567051 C-70.20344435 415.51941462 -91.52481272 415.53457494 -112.8462674 415.52995348 C-124.81401854 415.52770953 -136.78165561 415.53294119 -148.74938393 415.55784607 C-158.93807316 415.57886843 -169.12658576 415.58244177 -179.31528226 415.56354648 C-184.51175851 415.55439455 -189.70790549 415.55322926 -194.904356 415.57390213 C-199.66596999 415.59263531 -204.42698559 415.58808223 -209.18857696 415.56535631 C-210.90654596 415.5611765 -212.62456106 415.56534967 -214.34248129 415.57895225 C-226.33989913 415.66744164 -236.75100228 414.54818221 -246.0625 406.1875 C-251.78808071 399.90245506 -254.64106819 392.25866956 -254.875 383.8125 C-254.91238281 382.94367188 -254.94976562 382.07484375 -254.98828125 381.1796875 C-253.91484099 373.00578458 -249.60468795 365.89098778 -245.3125 359 C-244.24251264 357.24929463 -243.17355876 355.49795732 -242.10546875 353.74609375 C-241.53489746 352.81394043 -240.96432617 351.88178711 -240.37646484 350.92138672 C-237.42661147 346.06901687 -234.53745742 341.18089144 -231.6477356 336.2925415 C-230.62062878 334.55510571 -229.59255201 332.81824732 -228.56420898 331.08154297 C-222.22305108 320.37115249 -215.89175253 309.65492886 -209.5625 298.9375 C-202.22884416 286.51929825 -194.88688895 274.10607648 -187.53256226 261.70010376 C-183.03675711 254.11597692 -178.54584483 246.5289991 -174.0625 238.9375 C-169.23679982 230.76630194 -164.40169564 222.60071216 -159.5625 214.4375 C-152.55161962 202.61058178 -145.55380705 190.77599682 -138.5625 178.9375 C-131.22884416 166.51929825 -123.88688895 154.10607648 -116.53256226 141.70010376 C-112.03675711 134.11597692 -107.54584483 126.5289991 -103.0625 118.9375 C-98.23679982 110.76630194 -93.40169564 102.60071216 -88.5625 94.4375 C-83.66145432 86.1697414 -78.76397166 77.89990481 -73.875 69.625 C-73.34745117 68.73248535 -72.81990234 67.8399707 -72.27636719 66.92041016 C-69.66762211 62.50579626 -67.06277657 58.08895489 -64.46484375 53.66796875 C-61.78821163 49.11498626 -59.09400926 44.57267017 -56.39453125 40.03320312 C-55.08292573 37.81689742 -53.77805313 35.59751977 -52.48046875 33.37304688 C-50.63856912 30.21568893 -48.78067159 27.06818761 -46.91369629 23.92559814 C-46.19122532 22.70325991 -45.474148 21.47771423 -44.76306152 20.24871826 C-35.19770729 3.73672899 -20.03565189 -9.31104681 0 0 Z M-25.51879883 18.21655273 C-27.59785503 20.98457106 -29.34451012 23.7872655 -31.07421875 26.78515625 C-31.39977249 27.34579773 -31.72532623 27.90643921 -32.06074524 28.48406982 C-32.76161684 29.69136241 -33.46080192 30.89963539 -34.15844727 32.10879517 C-36.03755815 35.36450923 -37.9302049 38.6123139 -39.82421875 41.859375 C-40.21406952 42.52794022 -40.60392029 43.19650543 -41.00558472 43.8853302 C-45.10333943 50.89396007 -49.32737597 57.82384333 -53.5625 64.75 C-58.24191295 72.40921121 -62.85720832 80.08479684 -67.19140625 87.94580078 C-70.50671862 93.92430983 -74.03225952 99.77145822 -77.5625 105.625 C-83.10610069 114.8176417 -88.58239464 124.04525457 -94 133.3125 C-101.47448722 146.09422752 -109.00696045 158.8404435 -116.56542969 171.57275391 C-119.96290095 177.29695305 -123.35646769 183.02346508 -126.75 188.75 C-127.41563965 189.87317627 -128.0812793 190.99635254 -128.76708984 192.15356445 C-135.0416029 202.74267434 -141.30358086 213.33916784 -147.5625 223.9375 C-154.89615584 236.35570175 -162.23811105 248.76892352 -169.59243774 261.17489624 C-174.08824289 268.75902308 -178.57915517 276.3460009 -183.0625 283.9375 C-187.88820018 292.10869806 -192.72330436 300.27428784 -197.5625 308.4375 C-203.51607368 318.48080773 -209.46215846 328.52849164 -215.3984375 338.58203125 C-218.15673674 343.25290042 -220.92163383 347.9198355 -223.68798828 352.5859375 C-225.32908297 355.35988627 -226.9618724 358.13859067 -228.59375 360.91796875 C-230.41045822 364.00811957 -232.25744202 367.07296331 -234.15625 370.11328125 C-239.14660666 377.98978153 -239.14660666 377.98978153 -240.08984375 387.04296875 C-238.58404566 392.4526878 -235.05888007 395.82462149 -230.5625 398.9375 C-227.03955557 400.11181481 -224.26723409 400.06656972 -220.54708576 400.07172108 C-219.82508544 400.07407331 -219.10308511 400.07642554 -218.35920599 400.07884905 C-215.9211218 400.08554703 -213.4830908 400.08508058 -211.04499817 400.08467102 C-209.28681996 400.08796915 -207.52864251 400.0916946 -205.77046603 400.0958125 C-200.92421583 400.10584642 -196.07797802 400.10955153 -191.2317189 400.11220181 C-186.01070558 400.11610073 -180.78970211 400.12567933 -175.56869507 400.13441467 C-162.95281739 400.15419048 -150.33693889 400.16424658 -137.72104958 400.17314246 C-131.78325236 400.17752342 -125.84545604 400.18289072 -119.90765953 400.18813133 C-100.17475603 400.20514452 -80.44185308 400.21963945 -60.70894337 400.22688007 C-55.58647982 400.22879004 -50.46401627 400.23071036 -45.34155273 400.23266602 C-44.06835521 400.23314976 -42.7951577 400.2336335 -41.48337843 400.2341319 C-20.85102675 400.24243503 -0.218733 400.26777636 20.41359337 400.30024669 C41.58564049 400.33329539 62.75765814 400.35132684 83.92973119 400.35452431 C95.82142274 400.35669141 107.71302982 400.36546927 119.60469627 400.39098549 C129.7306688 400.41266255 139.85653633 400.42075765 149.98252942 400.41101871 C155.1500784 400.40646537 160.31741061 400.40842029 165.48493004 400.42778015 C170.21565078 400.4453507 174.94599566 400.44446384 179.67672006 400.42888286 C181.38807147 400.42649749 183.09944848 400.4308783 184.81076064 400.44271151 C196.72842888 400.67099271 196.72842888 400.67099271 207.4375 395.9375 C211.64539712 391.40591848 212.81458674 388.44007912 212.73242188 382.38525391 C212.23289318 378.23933115 210.33458248 375.14417541 208.1875 371.625 C207.73930908 370.85575195 207.29111816 370.08650391 206.8293457 369.29394531 C205.38560434 366.82917854 203.9139478 364.3827912 202.4375 361.9375 C201.47709223 360.32467842 200.51745522 358.71139762 199.55859375 357.09765625 C197.5700523 353.7625119 195.56849664 350.43559228 193.55859375 347.11328125 C190.40018727 341.88751819 187.28897379 336.63470359 184.1875 331.375 C183.09900759 329.52991885 182.01046472 327.68486748 180.921875 325.83984375 C180.07979492 324.41260986 180.07979492 324.41260986 179.22070312 322.95654297 C175.96610568 317.44636334 172.70125913 311.94225602 169.4375 306.4375 C164.07450962 297.39114933 158.71893113 288.34047192 153.37109375 279.28515625 C148.38839336 270.85006885 143.39346227 262.42224015 138.39648438 253.99560547 C134.62069312 247.62692182 130.8534949 241.25329879 127.09521484 234.87426758 C120.99989664 224.53464333 120.99989664 224.53464333 114.8125 214.25 C113.92691406 212.79013672 113.92691406 212.79013672 113.0234375 211.30078125 C111.03351469 208.33080174 111.03351469 208.33080174 108.4375 205.9375 C106.38386394 205.5768369 106.38386394 205.5768369 104.25 205.75 C102.991875 205.811875 101.73375 205.87375 100.4375 205.9375 C100.19 205.256875 99.9425 204.57625 99.6875 203.875 C98.66262839 201.46655171 97.59428911 199.60946832 96.1875 197.4375 C94.4375 193.9375 94.4375 193.9375 95.1875 191.375 C95.6 190.570625 96.0125 189.76625 96.4375 188.9375 C96.83530705 184.34592969 96.18335798 181.78487625 93.75390625 177.90234375 C93.16488525 176.94344238 92.57586426 175.98454102 91.96899414 174.99658203 C90.99434204 173.45139893 90.99434204 173.45139893 90 171.875 C88.97020337 170.20239801 87.94046306 168.52975946 86.91331482 166.85552979 C86.19360564 165.68317236 85.47235478 164.51176012 84.74964905 163.34124756 C81.09134003 157.40935694 77.56814771 151.4013908 74.05941772 145.38018799 C72.27902479 142.32549221 70.49302826 139.27407784 68.70703125 136.22265625 C68.17617668 135.31540802 68.17617668 135.31540802 67.63459778 134.38983154 C61.89219542 124.58250525 56.0793733 114.81673302 50.27929688 105.04345703 C47.49305012 100.34480496 44.71495543 95.64135237 41.9375 90.9375 C36.43360231 81.61773803 30.9171865 72.30542052 25.39648438 62.99560547 C21.62082773 56.62714887 17.85337107 50.25398612 14.09594727 43.87475586 C12.00625937 40.33123829 9.90798552 36.79285597 7.80810547 33.25537109 C6.55136219 31.13005569 5.30761416 28.99768987 4.06640625 26.86328125 C-1.40025159 17.38883937 -1.40025159 17.38883937 -10.5625 11.9375 C-17.34799274 11.29735918 -21.08881325 13.05569969 -25.51879883 18.21655273 Z " fill="#F94653" transform="translate(269.5625,50.0625)"/>
<path d="M0 0 C2.99773953 1.79864372 5.77634586 3.82926724 8.5625 5.9375 C21.23880505 15.40696711 31.9172338 19.25795894 48 18 C59.78206489 15.92007945 68.48487866 10.71680034 77.625 3.25 C85.94273214 -3.27802611 94.60439115 -4.03244061 105 -3 C112.15407986 -1.37500186 117.50570362 2.61982867 123.28515625 6.97265625 C135.31310829 15.95468086 146.92950322 19.2632884 162 18 C173.61547231 16.10115254 184.00390916 8.82600255 193.66015625 2.48046875 C199.16094987 -1 199.16094987 -1 203 -1 C205.1536528 2.74556079 207.29654726 6.49716766 209.4375 10.25 C210.04916016 11.31347656 210.66082031 12.37695312 211.29101562 13.47265625 C211.87431641 14.49746094 212.45761719 15.52226562 213.05859375 16.578125 C213.59798584 17.52075195 214.13737793 18.46337891 214.69311523 19.43457031 C215.83208229 21.67037563 216.53372922 23.55018811 217 26 C216.40687012 26.11480713 215.81374023 26.22961426 215.20263672 26.34790039 C200.09219016 29.341038 187.15860386 32.79780637 174.9375 42.6484375 C167.2728911 47.99512032 158.14921884 49.72869885 149 49 C141.03931719 47.42916292 134.9742987 42.98557073 128.59765625 38.1953125 C116.10085322 28.99545435 102.24057818 26.16469095 86.92578125 28.4609375 C77.80870972 30.67192489 70.75101168 35.66696746 63.3125 41.1875 C54.10777218 47.99043001 45.4126057 49.94865488 34 49 C26.36723363 47.43492172 20.67346091 42.6865828 14.6159668 38.08325195 C2.21044271 28.75904414 -9.73637562 27.19744832 -25 28 C-33.07058485 29.19523607 -39.46921442 33.28565478 -46 38 C-46.59554687 38.42410156 -47.19109375 38.84820312 -47.8046875 39.28515625 C-49.85510826 40.99384021 -50.92065909 42.42745887 -51.2890625 45.0859375 C-51.35033016 47.55946334 -51.35033016 47.55946334 -51 51 C-52.95649397 51.83764268 -54.91525556 52.66999059 -56.875 53.5 C-57.96554688 53.9640625 -59.05609375 54.428125 -60.1796875 54.90625 C-63 56 -63 56 -65 56 C-65.350625 55.21625 -65.70125 54.4325 -66.0625 53.625 C-68.96815584 49.68830499 -72.35629842 49.80413553 -77 49 C-87.57789589 46.84825708 -96.1625697 40.829414 -105.0546875 34.99609375 C-114.25976759 28.95933443 -123.35324166 25.67181008 -134 23 C-129.85499402 14.28606697 -125.16853067 6.13322085 -120 -2 C-114.7928293 -0.54683608 -110.78812504 1.83408694 -106.3125 4.75 C-104.89191572 5.65307525 -103.47003572 6.55411546 -102.046875 7.453125 C-101.35658203 7.88947266 -100.66628906 8.32582031 -99.95507812 8.77539062 C-87.40909401 16.63386419 -75.80660139 20.42223886 -60.8203125 17.34765625 C-51.32000366 14.47288747 -43.73837078 8.95770299 -35.75 3.25 C-24.76473782 -4.37627405 -12.36734191 -5.58284996 0 0 Z " fill="#16B0F6" transform="translate(215,351)"/>
<path d="M0 0 C2.05511094 2.66134056 3.87479464 5.3535686 5.57421875 8.25390625 C6.06857422 9.094375 6.56292969 9.93484375 7.07226562 10.80078125 C7.60529297 11.71214844 8.13832031 12.62351563 8.6875 13.5625 C9.8578297 15.5535284 11.02841416 17.54440707 12.19921875 19.53515625 C12.81716309 20.58719238 13.43510742 21.63922852 14.07177734 22.72314453 C17.36731838 28.32364489 20.68467555 33.9111963 24 39.5 C29.36350517 48.54604489 34.7185694 57.59702899 40.06640625 66.65234375 C44.37070772 73.93898678 48.68440262 81.22004283 53 88.5 C60.53349922 101.20854364 68.05101018 113.92647633 75.56347656 126.64746094 C82.37626933 138.18299866 89.19824031 149.71304391 96.02993774 161.23739624 C101.04933168 169.70478284 106.06092444 178.17672742 111.06640625 186.65234375 C114.68734545 192.78214009 118.31427348 198.90836205 121.94482422 205.0324707 C123.30679191 207.32991707 124.66758503 209.62804671 126.02783203 211.92651367 C129.28248615 217.42481683 132.54650405 222.91695376 135.8359375 228.39453125 C136.4340625 229.39484375 137.0321875 230.39515625 137.6484375 231.42578125 C138.76612357 233.29449167 139.88823749 235.16056386 141.015625 237.0234375 C146.30253146 245.88516932 148.68798863 253.56072077 146.34765625 263.875 C143.47701693 272.74564512 138.2800652 279.52876479 130 284 C121.36286936 287.79246289 112.79905173 287.41113518 103.55528259 287.36076355 C101.76972474 287.36207271 99.98416745 287.36470116 98.19861323 287.36853105 C93.30479481 287.37522624 88.41117407 287.36325661 83.51738083 287.34819686 C78.23528125 287.33522685 72.95319257 287.33962665 67.67108154 287.34190369 C58.5236898 287.34347581 49.37636232 287.33407296 40.22898674 287.31719017 C27.00346933 287.29279649 13.77798295 287.28499452 0.55244548 287.2812262 C-20.90572778 287.2746623 -42.36386681 287.25470278 -63.82202148 287.22631836 C-84.6651187 287.19877621 -105.50820662 287.17754338 -126.35131836 287.16479492 C-127.63634894 287.16400675 -128.92137952 287.16321858 -130.24535043 287.16240653 C-136.69204937 287.15849138 -143.13874838 287.15470026 -149.58544743 287.15097082 C-203.05698861 287.11987682 -256.52849264 287.06704267 -310 287 C-310 286.67 -310 286.34 -310 286 C-309.19714884 286.00498599 -308.39429768 286.00997198 -307.56711769 286.01510906 C-287.95781792 286.13306876 -268.34920486 286.18945244 -248.73954201 286.17878246 C-239.25601663 286.17508 -229.77335997 286.19159376 -220.29003906 286.25708008 C-212.016369 286.31416044 -203.74366806 286.33190352 -195.46983278 286.3040064 C-191.09558651 286.2905892 -186.7232863 286.29578291 -182.34929276 286.34822655 C-155.75901332 286.78052887 -155.75901332 286.78052887 -133 274 C-129.90333803 271.93555869 -129.26479885 271.74997311 -125.76447773 271.74946022 C-124.89607268 271.74446152 -124.02766762 271.73946283 -123.13294727 271.73431265 C-122.17829662 271.73897587 -121.22364598 271.74363908 -120.24006653 271.7484436 C-118.7194816 271.7439884 -118.7194816 271.7439884 -117.16817778 271.73944318 C-113.75504687 271.73177544 -110.34208665 271.73830864 -106.92895508 271.74462891 C-104.48832075 271.74188028 -102.04768731 271.73820117 -99.60705566 271.73365784 C-94.34253865 271.72553213 -89.07806631 271.72321849 -83.81354713 271.72560501 C-76.19318838 271.72870068 -68.57290401 271.71707024 -60.95256396 271.70105521 C-48.57800177 271.67507919 -36.20343952 271.6550687 -23.82885742 271.64160156 C-23.08798933 271.64079119 -22.34712124 271.63998082 -21.5838026 271.6391459 C-11.07702138 271.62793171 -0.57024546 271.62264509 9.93654094 271.61975877 C10.67589307 271.61955478 11.41524521 271.61935079 12.17700195 271.61914062 C13.28467771 271.61884072 13.28467771 271.61884072 14.41473075 271.61853476 C26.73655983 271.6147995 39.05830843 271.59569665 51.38009721 271.56404626 C58.97862582 271.54514457 66.57694789 271.53916217 74.17549352 271.54986344 C80.00241329 271.55693955 85.82916976 271.54338632 91.65605927 271.52224541 C94.04411862 271.5169204 96.4322045 271.51842542 98.82025337 271.52728081 C102.0822303 271.53840064 105.34323096 271.52497059 108.60514832 271.50552368 C110.02039387 271.51921067 110.02039387 271.51921067 111.46423024 271.53317416 C117.44178155 271.46390615 122.02029588 270.42339349 127 267 C130.81993661 262.89356814 131.41689761 259.77101969 131.3125 254.40161133 C130.77729485 250.28847616 128.88380404 247.18491138 126.75 243.6875 C126.30180908 242.91825195 125.85361816 242.14900391 125.3918457 241.35644531 C123.94810434 238.89167854 122.4764478 236.4452912 121 234 C120.03959223 232.38717842 119.07995522 230.77389762 118.12109375 229.16015625 C116.1325523 225.8250119 114.13099664 222.49809228 112.12109375 219.17578125 C108.96268727 213.95001819 105.85147379 208.69720359 102.75 203.4375 C101.66150759 201.59241885 100.57296472 199.74736748 99.484375 197.90234375 C98.92298828 196.95085449 98.36160156 195.99936523 97.78320312 195.01904297 C94.52860568 189.50886334 91.26375913 184.00475602 88 178.5 C82.63700962 169.45364933 77.28143113 160.40297192 71.93359375 151.34765625 C66.95089336 142.91256885 61.95596227 134.48474015 56.95898438 126.05810547 C53.75829656 120.6594574 50.56094932 115.25892373 47.375 109.8515625 C38.85194906 93.56212845 38.85194906 93.56212845 28 79 C26.783125 79.04125 25.56625 79.0825 24.3125 79.125 C20.90170587 78.81208311 20.10567657 78.12543099 17.84765625 75.4453125 C15.9077106 72.30298469 14.19851475 69.49788748 13 66 C13.8203125 63.484375 13.8203125 63.484375 15 61 C15.44606245 56.22310654 14.68396577 53.83337242 11.9375 49.9453125 C10.98846802 48.54067749 10.98846802 48.54067749 10.02026367 47.10766602 C9.35357666 46.12338623 8.68688965 45.13910645 8 44.125 C1.41855591 33.89158338 -0.35339823 28.13091804 1 16 C0.95049969 12.98972089 0.73579184 10.00077542 0.5 7 C0.40595129 5.64585405 0.31217182 4.29168935 0.21875 2.9375 C0.1465625 1.968125 0.074375 0.99875 0 0 Z " fill="#F32938" transform="translate(350,178)"/>
<path d="M0 0 C14.8957338 -1.07464212 24.62675872 4.05240892 36.60595703 12.1328125 C47.59082551 19.51886472 60.25485907 26.9875378 74 25 C77.09799981 22.80873184 77.80352112 21.58943664 79 18 C81.58203125 16.578125 81.58203125 16.578125 84.8125 15.25 C85.87082031 14.80140625 86.92914063 14.3528125 88.01953125 13.890625 C91.07380898 12.97794437 92.09987586 12.94093131 95 14 C103.04676812 15.10989905 106.72712411 11.68902683 113 7 C120.44108211 2.47698931 129.6147927 2.99826619 137.9609375 4.55078125 C144.30698455 6.51414771 149.1200318 10.16227876 154.22387695 14.27685547 C165.90572366 23.65511664 177.52482297 25.2837803 192 26 C190.86304688 27.13308594 190.86304688 27.13308594 189.703125 28.2890625 C188.22343678 29.77302728 186.74843664 31.261949 185.296875 32.7734375 C184.21920751 33.88920434 183.11810576 34.98260763 181.99994564 36.05779171 C180.73732708 37.28395916 179.50891102 38.54731822 178.33349705 39.85731602 C170.87210994 47.08081569 161.66261971 45.93330022 151.98608398 45.79467773 C150.05374728 45.79270131 148.12140532 45.79381528 146.18907166 45.79777527 C140.96203401 45.79977827 135.73612784 45.75871261 130.50935245 45.70975757 C125.04015306 45.66590719 119.57092582 45.66187925 114.10157776 45.65357971 C103.7530825 45.63184965 93.4051068 45.57444244 83.05684 45.50413328 C71.27216484 45.42580808 59.48746447 45.38738271 47.70259368 45.35226524 C23.4681081 45.27915779 -0.7659168 45.15608518 -25 45 C-23.37474495 40.81715584 -21.40510582 36.95714552 -19.1875 33.0625 C-18.80658203 32.38880371 -18.42566406 31.71510742 -18.03320312 31.02099609 C-12.868925 21.93877941 -7.51053109 12.96838157 -2.1640625 3.99267578 C-1.40048041 2.68555392 -0.67699707 1.35399414 0 0 Z " fill="#BCEAFB" transform="translate(71,389)"/>
<path d="M0 0 C3.6033951 2.09450638 6.52379326 4.69841894 9.60546875 7.48828125 C14.51182213 11.84092448 19.469372 16.05140372 24.66796875 20.05078125 C30.41368444 24.48213891 35.91613539 29.1455484 41.34375 33.9609375 C41.92253906 34.47140625 42.50132812 34.981875 43.09765625 35.5078125 C43.63683685 35.9891716 44.17601746 36.4705307 44.73153687 36.96647644 C46.62311226 38.59058183 46.62311226 38.59058183 48.73916626 39.8014679 C54.24663067 43.20923897 54.24663067 43.20923897 55.36911011 46.78321838 C55.59329844 49.47676599 55.5689127 52.06151089 55.44921875 54.76171875 C55.43789917 55.72985504 55.42657959 56.69799133 55.41491699 57.69546509 C55.37028871 60.77428838 55.26995557 63.848377 55.16796875 66.92578125 C55.12782405 69.01816169 55.09132501 71.11061546 55.05859375 73.203125 C54.97059766 78.32082235 54.8326466 83.43500047 54.66796875 88.55078125 C53.57532715 88.73616455 52.48268555 88.92154785 51.35693359 89.11254883 C49.90584688 89.36886447 48.45484198 89.62564359 47.00390625 89.8828125 C46.28581787 90.00338013 45.56772949 90.12394775 44.82788086 90.24816895 C39.70926138 91.16858394 35.65694479 92.6912004 31.26953125 95.5625 C29.66796875 96.55078125 29.66796875 96.55078125 27.66796875 96.55078125 C27.66385986 95.86564453 27.65975098 95.18050781 27.65551758 94.47460938 C27.62236728 91.33249136 27.5516999 88.19225753 27.48046875 85.05078125 C27.47466797 83.973125 27.46886719 82.89546875 27.46289062 81.78515625 C27.27404277 74.90270104 26.59423685 69.6347889 21.66796875 64.55078125 C15.6631172 59.35894033 7.77708832 59.9045431 0.25927734 59.97436523 C-1.82876382 59.98825951 -3.91233381 59.95405798 -6 59.91601562 C-12.56670473 59.87494922 -18.47267317 59.85261168 -23.83300781 64.04101562 C-30.05407753 70.3066663 -29.97155853 76.5270753 -30.08203125 84.98828125 C-30.12650391 86.65793945 -30.12650391 86.65793945 -30.171875 88.36132812 C-30.24217257 91.09121697 -30.29506788 93.82027164 -30.33203125 96.55078125 C-31.19183594 96.14085937 -32.05164063 95.7309375 -32.9375 95.30859375 C-34.11957031 94.76976562 -35.30164063 94.2309375 -36.51953125 93.67578125 C-37.66808594 93.14210938 -38.81664062 92.6084375 -40 92.05859375 C-45.52712122 89.84330915 -51.46265955 89.29930323 -57.33203125 88.55078125 C-57.58026331 82.43128815 -57.76115001 76.31475504 -57.88134766 70.19140625 C-57.93147075 68.11145969 -57.99959327 66.03186262 -58.08642578 63.953125 C-58.78935275 46.68593074 -58.78935275 46.68593074 -55.28125 41.54614258 C-52.7280103 39.51194964 -50.23502266 38.02933365 -47.33203125 36.55078125 C-46.19176156 35.65518357 -45.0768493 34.7252453 -44.00390625 33.75 C-37.88637578 28.49121378 -31.66490781 23.42162501 -25.29321289 18.47436523 C-21.93356376 15.85165922 -18.68544077 13.15835871 -15.51953125 10.30078125 C-9.32809289 4.74347531 -9.32809289 4.74347531 -6.58203125 2.42578125 C-5.8859375 1.82507813 -5.18984375 1.224375 -4.47265625 0.60546875 C-2.33203125 -0.44921875 -2.33203125 -0.44921875 0 0 Z " fill="#FCFCFC" transform="translate(257.33203125,244.44921875)"/>
<path d="M0 0 C1.0209375 0.99 1.0209375 0.99 2.0625 2 C4.8957932 4.35806893 4.8957932 4.35806893 8.53515625 3.84375 C10.25025391 3.92109375 10.25025391 3.92109375 12 4 C13.92409498 6.24838066 15.105419 7.94219177 16.4375 10.5 C16.78748047 11.12003906 17.13746094 11.74007812 17.49804688 12.37890625 C18.35569369 13.9062225 19.18111194 15.45155713 20 17 C19.505 17.53625 19.01 18.0725 18.5 18.625 C16.54608643 21.71869648 16.66629689 23.37114977 17 27 C18.3249931 30.08595235 18.3249931 30.08595235 20.26171875 33.15625 C20.60377853 33.73179123 20.94583832 34.30733246 21.29826355 34.90031433 C22.4158907 36.77444754 23.55144534 38.63699054 24.6875 40.5 C25.46952709 41.80368515 26.2502772 43.10813711 27.02978516 44.41333008 C28.60170785 47.04187589 30.18013162 49.66633031 31.76416016 52.28759766 C34.84634233 57.39428133 37.85708335 62.54267952 40.875 67.6875 C43.94818242 72.9156139 47.05456389 78.11489383 50.28125 83.25 C50.80219238 84.08313721 51.32313477 84.91627441 51.85986328 85.7746582 C52.84378069 87.34153795 53.83647734 88.90295144 54.83935547 90.45776367 C55.97012783 92.2589436 56.99589838 94.1252533 58 96 C56.64254179 100.07237462 54.90905581 100.34461661 51.125 102.25 C46.64895405 104.5464223 42.38967426 106.968196 38.1875 109.75 C29.16183325 115.53735116 21.3538441 117.59627594 10.546875 115.53125 C3.67414456 113.51268581 -1.75466491 109.36863319 -7.47265625 105.1953125 C-8.30667969 104.59460938 -9.14070313 103.99390625 -10 103.375 C-10.7425 102.82585937 -11.485 102.27671875 -12.25 101.7109375 C-15.94756297 99.41046509 -20.02054793 97.76864537 -24 96 C-24 83.79 -24 71.58 -24 59 C-20.7 58.34 -17.4 57.68 -14 57 C-6.13087141 54.40818384 -1.73707475 50.36382995 2 43 C4.52943688 35.41168935 3.21302605 28.26379277 0.0703125 21.09375 C-1.05613046 18.79102198 -1.05613046 18.79102198 -3 16 C-2.67 15.67 -2.34 15.34 -2 15 C-1.60056824 12.47804033 -1.24920152 9.97036344 -0.9375 7.4375 C-0.84662109 6.72658203 -0.75574219 6.01566406 -0.66210938 5.28320312 C-0.43760497 3.52261597 -0.21831603 1.76136522 0 0 Z " fill="#F5BA08" transform="translate(351,239)"/>
<path d="M0 0 C4.1829614 2.0766053 7.49362006 4.94014297 11 8 C12.1367516 8.96373867 13.27483259 9.92591094 14.4140625 10.88671875 C16.81724409 12.9245351 19.20457872 14.97911394 21.58203125 17.046875 C26.29872299 21.14055775 31.14820574 25.06824969 36 29 C42.44093936 34.23385262 48.82380109 39.52685869 55.14819336 44.90039062 C61.02276895 49.8839232 66.98464258 54.76078662 72.98046875 59.59765625 C76.89240982 62.78481964 76.89240982 62.78481964 78 65 C78.69019608 72.01699346 78.69019608 72.01699346 75.9375 75.9375 C72.38459775 78.43209094 70.34095695 79.07615714 66 79 C61.63154641 76.41128676 57.81937302 73.26050964 54 69.9375 C49.46501696 66.0412101 44.85500878 62.28161693 40.125 58.625 C35.05061509 54.69055944 30.147158 50.60034015 25.3125 46.375 C19.30358144 41.12577657 13.29912491 35.90271696 7 31 C6.30648437 30.45214844 5.61296875 29.90429688 4.8984375 29.33984375 C0.56013875 26.2373552 -3.15542916 25.13941213 -8.51171875 25.47265625 C-17.0740718 27.28728366 -24.09334116 35.38079255 -30.51953125 40.984375 C-33.48780496 43.56914872 -36.50627142 46.08182395 -39.5625 48.5625 C-43.58359064 51.82779093 -47.55318993 55.14587706 -51.5 58.5 C-57.27786579 63.40302703 -63.09257329 68.25313055 -69 73 C-69.96873047 73.82564453 -69.96873047 73.82564453 -70.95703125 74.66796875 C-73.93131021 77.06484818 -76.34661003 78.33734455 -80.125 78.5625 C-84.37981306 77.94486585 -86.04010293 77.04959092 -89 74 C-90.41000664 71.17998673 -90.24548451 69.12992745 -90 66 C-88.00580966 61.97945496 -85.64075014 59.61874566 -82.125 56.875 C-80.65933594 55.71097656 -80.65933594 55.71097656 -79.1640625 54.5234375 C-78.6474707 54.11448242 -78.13087891 53.70552734 -77.59863281 53.28417969 C-74.85235415 51.07809756 -72.17970811 48.78607867 -69.5 46.5 C-64.6512931 42.37795796 -59.74836584 38.33006522 -54.8125 34.3125 C-51.68199811 31.73853178 -48.58846829 29.12408806 -45.5 26.5 C-37.26731179 19.51337288 -28.91336968 12.68959235 -20.4375 6 C-19.82914307 5.51853516 -19.22078613 5.03707031 -18.59399414 4.54101562 C-12.40662394 -0.31980064 -7.8752833 -1.24840605 0 0 Z " fill="#534D54" transform="translate(262,204)"/>
<path d="M0 0 C13.77559828 -0.71458435 21.37259797 1.753801 32.28515625 9.97265625 C44.31310829 18.95468086 55.92950322 22.2632884 71 21 C82.61547231 19.10115254 93.00390916 11.82600255 102.66015625 5.48046875 C108.16094987 2 108.16094987 2 112 2 C114.1536528 5.74556079 116.29654726 9.49716766 118.4375 13.25 C119.35499023 14.84521484 119.35499023 14.84521484 120.29101562 16.47265625 C120.87431641 17.49746094 121.45761719 18.52226562 122.05859375 19.578125 C122.86768188 20.99206543 122.86768188 20.99206543 123.69311523 22.43457031 C124.83208229 24.67037563 125.53372922 26.55018811 126 29 C125.40687012 29.11480713 124.81374023 29.22961426 124.20263672 29.34790039 C109.09219016 32.341038 96.15860386 35.79780637 83.9375 45.6484375 C76.2728911 50.99512032 67.14921884 52.72869885 58 52 C50.03931719 50.42916292 43.9742987 45.98557073 37.59765625 41.1953125 C24.97363961 31.90180262 11.30757302 29.27393793 -4.203125 31.44921875 C-6.48853696 31.90956602 -8.74597487 32.40599808 -11 33 C-9.41300305 29.60609079 -7.45964905 26.57494703 -5.375 23.46484375 C-4.66859375 22.40845703 -3.9621875 21.35207031 -3.234375 20.26367188 C-2.48963841 19.15491092 -1.74484618 18.04618734 -1 16.9375 C-0.25499474 15.8250128 0.48979908 14.71238397 1.234375 13.59960938 C2.60052054 11.55911645 3.96761115 9.51925575 5.3359375 7.48022461 C6.56023469 5.6554542 7.78108615 3.82837077 9 2 C6.03 1.67 3.06 1.34 0 1 C0 0.67 0 0.34 0 0 Z " fill="#1494EA" transform="translate(306,348)"/>
<path d="M0 0 C3.58474583 2.11177957 6.51309886 4.7146014 9.58984375 7.5 C14.49619713 11.85264323 19.453747 16.06312247 24.65234375 20.0625 C30.39805944 24.49385766 35.90051039 29.15726715 41.328125 33.97265625 C42.19630859 34.73835938 42.19630859 34.73835938 43.08203125 35.51953125 C43.62121185 36.00089035 44.16039246 36.48224945 44.71591187 36.97819519 C46.60748726 38.60230058 46.60748726 38.60230058 48.72354126 39.81318665 C54.23100567 43.22095772 54.23100567 43.22095772 55.35348511 46.79493713 C55.57767344 49.48848474 55.5532877 52.07322964 55.43359375 54.7734375 C55.42227417 55.74157379 55.41095459 56.70971008 55.39929199 57.70718384 C55.35466371 60.78600713 55.25433057 63.86009575 55.15234375 66.9375 C55.11219905 69.02988044 55.07570001 71.12233421 55.04296875 73.21484375 C54.95497266 78.3325411 54.8170216 83.44671922 54.65234375 88.5625 C53.57855469 88.74425781 52.50476563 88.92601562 51.3984375 89.11328125 C49.96216086 89.36674183 48.52596727 89.62067328 47.08984375 89.875 C46.03313477 90.05192383 46.03313477 90.05192383 44.95507812 90.23242188 C40.14812753 91.09634387 36.07606859 92.48724406 31.65234375 94.5625 C31.64299805 93.69149658 31.63365234 92.82049316 31.62402344 91.9230957 C31.57945219 88.62547899 31.51760062 85.32905336 31.44482422 82.03198242 C31.41696457 80.61738497 31.39558006 79.20264197 31.38134766 77.7878418 C31.20734079 61.44859718 27.39639446 46.57416916 15.65234375 34.5625 C12.75460895 32.14610696 9.71959362 29.94528107 6.65234375 27.75 C5.81598389 27.14269043 4.97962402 26.53538086 4.11791992 25.90966797 C-2.63312329 21.02510867 -9.45270343 16.24166008 -16.34765625 11.5625 C-13.28269591 8.44897515 -10.20608667 5.42172111 -6.84765625 2.625 C-5.749375 1.68333984 -5.749375 1.68333984 -4.62890625 0.72265625 C-2.34765625 -0.4375 -2.34765625 -0.4375 0 0 Z " fill="#E4E9EE" transform="translate(257.34765625,244.4375)"/>
<path d="M0 0 C1.1653125 -0.00128906 2.330625 -0.00257813 3.53125 -0.00390625 C4.7584375 -0.00003906 5.985625 0.00382812 7.25 0.0078125 C9.09078125 0.00201172 9.09078125 0.00201172 10.96875 -0.00390625 C12.71671875 -0.00197266 12.71671875 -0.00197266 14.5 0 C15.57765625 0.00112793 16.6553125 0.00225586 17.765625 0.00341797 C20.25 0.1328125 20.25 0.1328125 21.25 1.1328125 C21.3383967 3.5084977 21.36530305 5.85489924 21.34765625 8.23046875 C21.3462413 8.93932724 21.34482635 9.64818573 21.34336853 10.37852478 C21.33775443 12.65082962 21.32519963 14.92303725 21.3125 17.1953125 C21.30748681 18.73242046 21.30292359 20.26952995 21.29882812 21.80664062 C21.28778042 25.58206892 21.27050641 29.35742421 21.25 33.1328125 C16.26858968 35.3722233 12.83376335 36.54520377 7.25 36.5078125 C6.095 36.51554687 4.94 36.52328125 3.75 36.53125 C-0.32780898 36.06703514 -3.02276636 34.80840369 -6.75 33.1328125 C-6.77465392 28.59383545 -6.79283789 24.05489707 -6.80493164 19.51586914 C-6.8099714 17.97061484 -6.8168032 16.42536534 -6.82543945 14.88012695 C-6.83752076 12.66356221 -6.84323173 10.44706032 -6.84765625 8.23046875 C-6.85281754 7.5356691 -6.85797882 6.84086945 -6.86329651 6.12501526 C-6.86349277 4.4605192 -6.81189129 2.79615751 -6.75 1.1328125 C-4.97550406 -0.64168344 -2.39982739 0.00251178 0 0 Z " fill="#AEA6AE" transform="translate(248.75,318.8671875)"/>
<path d="M0 0 C6.71945836 -0.84432985 11.75548987 -0.80341714 17.375 3.25 C19.27814468 4.79939012 21.15095931 6.38642696 23 8 C24.1367516 8.96373867 25.27483259 9.92591094 26.4140625 10.88671875 C28.81724409 12.9245351 31.20457872 14.97911394 33.58203125 17.046875 C38.29872299 21.14055775 43.14820574 25.06824969 48 29 C54.44093936 34.23385262 60.82380109 39.52685869 67.14819336 44.90039062 C73.02276895 49.8839232 78.98464258 54.76078662 84.98046875 59.59765625 C88.89240982 62.78481964 88.89240982 62.78481964 90 65 C90.69019608 72.01699346 90.69019608 72.01699346 87.9375 75.9375 C84.42176604 78.40599406 82.28616677 79 78 79 C75.28515625 77.89453125 75.28515625 77.89453125 73 76 C72.65234375 73.07421875 72.65234375 73.07421875 72.9375 69.6875 C73.12392661 64.57633347 73.12392661 64.57633347 71.625 59.75 C64.36314611 52.14234354 56.1701525 45.59587558 48 39 C42.11810244 34.22256355 36.27557442 29.40520088 30.5 24.5 C15.7050561 11.65231743 15.7050561 11.65231743 0 0 Z " fill="#413D41" transform="translate(250,204)"/>
<path d="M0 0 C0.66 0.66 1.32 1.32 2 2 C1.42894531 2.44988281 0.85789063 2.89976562 0.26953125 3.36328125 C-5.27797856 7.7642469 -10.71774346 12.27263927 -16.11010742 16.8605957 C-20.41698479 20.52040085 -24.78162476 24.10366287 -29.16796875 27.66796875 C-31.25029205 29.38265428 -33.31305827 31.11101857 -35.36328125 32.86328125 C-35.93691406 33.353125 -36.51054687 33.84296875 -37.1015625 34.34765625 C-38.20689376 35.2940015 -39.30992927 36.2430378 -40.41015625 37.1953125 C-50.21966794 45.59284903 -50.21966794 45.59284903 -55.25 45.375 C-59 45 -59 45 -61 43 C-60.42894531 42.55011719 -59.85789063 42.10023438 -59.26953125 41.63671875 C-53.72202144 37.2357531 -48.28225654 32.72736073 -42.88989258 28.1394043 C-38.58301521 24.47959915 -34.21837524 20.89633713 -29.83203125 17.33203125 C-27.74970795 15.61734572 -25.68694173 13.88898143 -23.63671875 12.13671875 C-22.77626953 11.40195313 -22.77626953 11.40195313 -21.8984375 10.65234375 C-20.79310624 9.7059985 -19.69007073 8.7569622 -18.58984375 7.8046875 C-12.24842262 2.37604668 -8.37913069 -0.83791307 0 0 Z " fill="#423E42" transform="translate(237,237)"/>
<path d="M0 0 C-2.26917623 10.51857734 -6.70652473 20.18743245 -11 30 C-11.33 30 -11.66 30 -12 30 C-12 20.43 -12 10.86 -12 1 C-4 0 -4 0 0 0 Z " fill="#FDD302" transform="translate(339,297)"/>
</svg>
