<?xml version="1.0" encoding="UTF-8"?>
<svg version="1.1" xmlns="http://www.w3.org/2000/svg" width="383" height="489">
<path d="M0 0 C6.86529766 6.67211828 6.86529766 6.67211828 7.1241985 11.14635766 C7.12381878 12.04477596 7.12343906 12.94319426 7.12304783 13.86883736 C7.12503888 14.90390454 7.12702993 15.93897173 7.12908131 17.00540459 C7.12471205 18.72424711 7.12471205 18.72424711 7.12025452 20.47781372 C7.12110894 21.68825407 7.12196337 22.89869442 7.12284368 24.14581478 C7.12421043 27.51618341 7.12106838 30.88649451 7.11606562 34.2568562 C7.11176025 37.88739349 7.11320761 41.5179289 7.1139679 45.14846802 C7.11449308 51.44213408 7.1113469 57.73578981 7.10573006 64.02945328 C7.09761425 73.12911248 7.09499975 82.22876666 7.09374207 91.32842909 C7.09155167 106.09086311 7.08489193 120.85329163 7.07543945 135.61572266 C7.06626501 149.95882133 7.05918433 164.30191851 7.05493164 178.64501953 C7.05466892 179.52864478 7.05440619 180.41227002 7.05413551 181.32267179 C7.0528305 185.7554156 7.05156679 190.18815942 7.05032361 194.62090325 C7.03995139 231.4139404 7.0215133 268.20696735 7 305 C28.78 304.67 50.56 304.34 73 304 C65.08 295.585 65.08 295.585 57 287 C47.49872921 276.14140481 47.49872921 276.14140481 47.7578125 266.42578125 C48.28024846 261.19299522 50.60065406 258.17075797 54.375 254.75 C59.02484236 251.04177499 62.81076761 249.50489288 68.90504456 249.68780518 C75.96148672 250.73937156 81.09812298 255.52577573 85.87890625 260.453125 C86.49467026 261.07217712 87.11043427 261.69122925 87.74485779 262.32904053 C89.69366772 264.29346738 91.62787689 266.27161151 93.5625 268.25 C94.86305688 269.56206623 96.16448263 270.8732718 97.46679688 272.18359375 C102.93215974 277.70226829 108.31097752 283.23482555 113.34643555 289.15234375 C115.35913076 291.40128475 117.49530854 293.48721329 119.6640625 295.5859375 C120.88222656 296.76542969 120.88222656 296.76542969 122.125 297.96875 C123.79183775 299.57308133 125.46635682 301.16947006 127.1484375 302.7578125 C133.13072186 308.58768197 139.07132448 315.29834741 139.5 324.0625 C138.42059783 332.5627921 135.53118879 338.33995692 129.9375 344.75 C128.76285453 346.14329462 127.58969438 347.53784272 126.41796875 348.93359375 C125.54857666 349.96009033 125.54857666 349.96009033 124.66162109 351.00732422 C122.26915588 353.87645456 120.00377185 356.83401229 117.75 359.8125 C114.04599217 364.6676729 110.23447023 369.41167364 106.34765625 374.12109375 C103.68884958 377.3815605 101.09140635 380.68594251 98.5 384 C97.11379511 385.76579839 95.72662603 387.53083282 94.33886719 389.29541016 C93.46273077 390.41087049 92.58831107 391.52768189 91.71582031 392.64599609 C90.52688622 394.16612656 89.32618911 395.67703463 88.125 397.1875 C87.44695312 398.04730469 86.76890625 398.90710938 86.0703125 399.79296875 C81.8577418 404.28372808 77.72519231 405.79036982 71.75 406.25 C65.49057789 405.83270519 60.91960743 404.41052326 56.625 399.6875 C52.59473695 394.46349056 51.42274323 389.58072723 52 383 C54.07150338 377.18710786 57.13095006 372.81830279 60.9375 368 C61.44345703 367.34644531 61.94941406 366.69289063 62.47070312 366.01953125 C66.34525933 361.03729131 70.30022568 356.11855472 74.24438477 351.19140625 C74.79908699 350.49825317 75.35378922 349.8051001 75.9253006 349.09094238 C77.28342255 347.3938726 78.64169592 345.69692401 80 344 C78.79810028 343.99413376 77.59620056 343.98826752 76.35787964 343.98222351 C65.02818539 343.92499748 53.69868311 343.85223625 42.36918449 343.76428509 C36.54463969 343.71956777 30.72016505 343.68031444 24.89550781 343.65356445 C19.27383231 343.62754536 13.65242663 343.58715235 8.03091812 343.53681374 C5.88677452 343.52013568 3.74258424 343.50862726 1.59838486 343.50238609 C-1.40621441 343.49275544 -4.41012189 343.46470776 -7.41455078 343.43237305 C-8.30000076 343.43380814 -9.18545074 343.43524323 -10.09773254 343.4367218 C-15.96766719 343.34744932 -20.27772994 342.40234516 -24.828125 338.38671875 C-25.29734375 337.82597656 -25.7665625 337.26523437 -26.25 336.6875 C-26.72953125 336.13449219 -27.2090625 335.58148438 -27.703125 335.01171875 C-31.83295433 328.6055076 -31.28375187 321.70818417 -31.26069641 314.36695862 C-31.26452196 313.08045204 -31.26834751 311.79394545 -31.27228898 310.46845382 C-31.28257039 306.90399772 -31.28038681 303.33964219 -31.27610838 299.77517784 C-31.27364144 295.92847666 -31.28265491 292.08179972 -31.29014587 288.23510742 C-31.30289553 280.70170648 -31.30468625 273.16834118 -31.30234561 265.63493127 C-31.30056268 259.51194149 -31.30231156 253.38896253 -31.30657005 247.26597404 C-31.30746284 245.95886686 -31.30746284 245.95886686 -31.30837366 244.62535347 C-31.3095854 242.85510779 -31.31079954 241.08486211 -31.31201603 239.31461643 C-31.32289249 222.71324907 -31.32072851 206.11190202 -31.31463119 189.5105335 C-31.30946128 174.3225144 -31.32071922 159.13455942 -31.33972941 143.946553 C-31.35910004 128.35102203 -31.36736521 112.75552141 -31.36360615 97.15997833 C-31.36169302 88.40444226 -31.36419269 79.64896078 -31.37832069 70.89343452 C-31.39022555 63.44024276 -31.39164942 55.98713918 -31.37953053 48.53394622 C-31.37363568 44.73155465 -31.37255906 40.92932447 -31.38453293 37.12694359 C-31.39736379 33.00450907 -31.38694182 28.88245979 -31.3742218 24.76002502 C-31.38159609 23.55885892 -31.38897037 22.35769282 -31.39656812 21.12012774 C-31.34029221 12.47160464 -30.13479845 6.49566894 -24 0 C-16.18398718 -5.47120898 -7.83813149 -5.47399871 0 0 Z " fill="#000000" transform="translate(133,59)"/>
</svg>
