<?xml version="1.0" encoding="utf-8"?>
<svg width="800px" height="800px" viewBox="0 0 32 32" id="Layer_1" data-name="Layer 1" xmlns="http://www.w3.org/2000/svg">
  <defs>
    <filter id="shadow" x="-20%" y="-20%" width="140%" height="140%">
      <feDropShadow dx="0" dy="2" stdDeviation="2" flood-color="#000000" flood-opacity="0.3"/>
    </filter>
  </defs>
  <!-- Outer red outline pin container with drop shadow -->
  <path d="M16,2A11.0134,11.0134,0,0,0,5,13a10.8885,10.8885,0,0,0,2.2163,6.6s.3.3945.3482.4517L16,30l8.439-9.9526c.0444-.0533.3447-.4478.3447-.4478l.0015-.0024A10.8846,10.8846,0,0,0,27,13,11.0134,11.0134,0,0,0,16,2Z" fill="none" stroke="#ef4444" stroke-width="2.2" filter="url(#shadow)" />
  <!-- Pedestrian obstacle symbol inside the pin bubble -->
  <g transform="translate(10, 7) scale(0.33333)" fill="#ef4444">
    <!-- Pedestrian Person -->
    <path d="M20 8.5c0 1.38-.896 2.5-2 2.5c-1.105 0-2-1.12-2-2.5S16.895 6 18 6c1.104 0 2 1.119 2 2.5zm5.918 19.74L21 19.869v-5.371c.371.326.755.678 1.127 1.043l.925 2.774a.998.998 0 1 0 1.896-.632l-1-3a1 1 0 0 0-.241-.39C22.205 12.79 20.169 11 19 11h-2c-1.21 0-2.643 1.702-3.682 3.223l-3.765 1.882a1 1 0 0 0 .895 1.789l4-2c.155-.078.288-.195.385-.339c.202-.303.421-.605.643-.893l1.101 3.853l-3.819 2.183A1.498 1.498 0 0 0 12 22v7a1.5 1.5 0 1 0 3 0v-6.13l3.207-1.833l5.125 8.723a1.497 1.497 0 0 0 2.053.533a1.5 1.5 0 0 0 .533-2.053z" />
    <!-- Circle & Slash -->
    <path d="M18 0C8.059 0 0 8.059 0 18s8.059 18 18 18s18-8.059 18-18S27.941 0 18 0zm16 18c0 3.968-1.453 7.591-3.845 10.388L7.612 5.845A15.927 15.927 0 0 1 18 2c8.837 0 16 7.164 16 16zM2 18c0-3.968 1.453-7.592 3.845-10.388l22.543 22.544A15.924 15.924 0 0 1 18 34C9.164 34 2 26.837 2 18z" />
  </g>
</svg>