<?xml version="1.0" encoding="UTF-8"?>
<svg version="1.1" xmlns="http://www.w3.org/2000/svg" width="200" height="200">
<path d="M0 0 C66 0 132 0 200 0 C200 66 200 132 200 200 C134 200 68 200 0 200 C0 134 0 68 0 0 Z " fill="#FBFBFB" transform="translate(0,0)"/>
<path d="M0 0 C66 0 132 0 200 0 C200 66 200 132 200 200 C134 200 68 200 0 200 C0 134 0 68 0 0 Z M39 30 C38.02289063 30.88429688 37.04578125 31.76859375 36.0390625 32.6796875 C18.02654329 49.52551905 7.87000537 72.49455465 6.875 97.08984375 C6.44182509 119.8586002 14.39808816 144.1205797 30 161 C30.88429688 161.97582031 31.76859375 162.95164063 32.6796875 163.95703125 C41.77539494 173.69343294 52.00018118 180.43224523 64.125 185.875 C65.03717285 186.28649292 65.03717285 186.28649292 65.96777344 186.70629883 C76.56738606 191.20289253 86.85971572 192.50770722 98.3125 192.375 C99.59487549 192.36339844 100.87725098 192.35179687 102.19848633 192.33984375 C128.18945984 191.89044163 149.81059947 181.98331481 168.03637695 163.50097656 C187.43680532 142.9828168 192.9096522 118.45489454 192.33984375 90.859375 C192.04272993 83.02233705 190.98202272 76.31645575 188 69 C187.72623535 68.3208252 187.4524707 67.64165039 187.17041016 66.94189453 C177.44912606 43.33155629 160.27116259 25.14002219 137 14.6875 C127.40168172 10.8093916 117.4169916 7.40403171 107 7 C106.03964844 6.96003906 105.07929687 6.92007812 104.08984375 6.87890625 C80.02078314 6.38173246 56.91509928 13.67735399 39 30 Z " fill="#FDFDFD" transform="translate(0,0)"/>
<path d="M0 0 C0.80050781 0.73992188 1.60101563 1.47984375 2.42578125 2.2421875 C3.40160156 3.12648438 4.37742188 4.01078125 5.3828125 4.921875 C15.11921419 14.01758244 21.85802648 24.24236868 27.30078125 36.3671875 C27.57510986 36.97530273 27.84943848 37.58341797 28.13208008 38.20996094 C32.62867378 48.80957356 33.93348847 59.10190322 33.80078125 70.5546875 C33.78337891 72.47825073 33.78337891 72.47825073 33.765625 74.44067383 C33.31622288 100.43164734 23.40909606 122.05278697 4.92675781 140.27856445 C-15.59140195 159.67899282 -40.11932421 165.1518397 -67.71484375 164.58203125 C-75.5518817 164.28491743 -82.257763 163.22421022 -89.57421875 160.2421875 C-90.25339355 159.96842285 -90.93256836 159.6946582 -91.63232422 159.41259766 C-115.24266246 149.69131356 -133.43419656 132.51335009 -143.88671875 109.2421875 C-147.76482715 99.64386922 -151.17018704 89.6591791 -151.57421875 79.2421875 C-151.61417969 78.28183594 -151.65414062 77.32148437 -151.6953125 76.33203125 C-152.19248629 52.26297064 -144.89686476 29.15728678 -128.57421875 11.2421875 C-127.68992187 10.26507813 -126.805625 9.28796875 -125.89453125 8.28125 C-93.81184492 -26.02337914 -36.33067359 -31.38481719 0 0 Z M-118.38671875 24.4296875 C-131.80684737 41.79691278 -135.9996479 60.93433183 -134.32421875 82.453125 C-132.85361534 93.88093901 -127.83628738 107.21212834 -120.57421875 116.2421875 C-118.50016824 117.5101578 -118.50016824 117.5101578 -116.57421875 118.2421875 C-115.52621094 117.159375 -115.52621094 117.159375 -114.45703125 116.0546875 C-113.54695313 115.1265625 -112.636875 114.1984375 -111.69921875 113.2421875 C-110.79429688 112.3140625 -109.889375 111.3859375 -108.95703125 110.4296875 C-106.57421875 108.2421875 -106.57421875 108.2421875 -104.57421875 108.2421875 C-103.19886536 110.21352736 -101.87210831 112.21900672 -100.57421875 114.2421875 C-99.25878596 115.92301829 -97.93105626 117.5945991 -96.57421875 119.2421875 C-97.97626184 122.45697317 -99.64519387 124.48132887 -102.19921875 126.8671875 C-104.07997627 128.58048537 -104.07997627 128.58048537 -105.57421875 130.2421875 C-105.57421875 130.9021875 -105.57421875 131.5621875 -105.57421875 132.2421875 C-91.64663153 142.41831171 -77.02573005 147.60423102 -59.82421875 147.5546875 C-58.72078125 147.57080078 -57.61734375 147.58691406 -56.48046875 147.60351562 C-36.90002035 147.6150065 -18.8372671 139.7362496 -4.88671875 126.1171875 C11.16731144 109.79355838 16.7354244 90.70172349 16.81298828 68.34936523 C16.60941267 51.9089195 10.83164095 38.62744937 1.42578125 25.2421875 C-1.92807915 26.68263257 -3.94752065 28.4550737 -6.39868164 31.14111328 C-7.13788345 31.9417923 -7.87708527 32.74247131 -8.63868713 33.56741333 C-9.83074013 34.86435623 -9.83074013 34.86435623 -11.046875 36.1875 C-12.76744272 38.00650149 -14.49084583 39.82282441 -16.21679688 41.63671875 C-18.92826433 44.48937533 -21.62206241 47.35107897 -24.27075195 50.26220703 C-39.849158 67.32545039 -39.849158 67.32545039 -48.12060547 68.48339844 C-52.74035049 68.67654659 -57.05225651 68.16601189 -61.57421875 67.2421875 C-61.90421875 66.5821875 -62.23421875 65.9221875 -62.57421875 65.2421875 C-61.3934375 65.26539062 -60.21265625 65.28859375 -58.99609375 65.3125 C-57.43880842 65.33126247 -55.88151623 65.34946216 -54.32421875 65.3671875 C-53.15826172 65.39232422 -53.15826172 65.39232422 -51.96875 65.41796875 C-46.45102862 65.5568843 -46.45102862 65.5568843 -41.57421875 63.2421875 C-39.22872201 59.72394239 -38.99430472 58.38443056 -39.57421875 54.2421875 C-41.74685375 51.66933026 -43.55415713 49.75221831 -46.57421875 48.2421875 C-35.35421875 37.0221875 -24.13421875 25.8021875 -12.57421875 14.2421875 C-17.22308311 4.94445878 -30.1424277 1.43235212 -39.57421875 -1.7578125 C-69.36759565 -9.82045316 -98.55700875 1.89284986 -118.38671875 24.4296875 Z " fill="#040404" transform="translate(158.57421875,27.7578125)"/>
<path d="M0 0 C4.15654204 3.99532275 6.64212482 7.51204361 9.125 12.625 C9.45886719 13.27339844 9.79273438 13.92179687 10.13671875 14.58984375 C15.04170656 24.49599561 16.49152298 33.95197205 16.375 44.9375 C16.38660156 46.02740234 16.39820313 47.11730469 16.41015625 48.24023438 C16.34059652 67.75173746 8.44279018 85.78947153 -5.125 99.6875 C-21.44862912 115.74153019 -40.54046401 121.30964315 -62.89282227 121.38720703 C-79.333268 121.18363142 -92.61473813 115.4058597 -106 106 C-104.59155282 102.78475695 -102.89655214 100.67816132 -100.375 98.25 C-99.74335937 97.63640625 -99.11171875 97.0228125 -98.4609375 96.390625 C-97.73777344 95.70226562 -97.73777344 95.70226562 -97 95 C-98.29166639 92.24162831 -99.74042584 89.94852518 -101.625 87.5625 C-103.79162341 84.61436727 -104.5672041 82.74354708 -104 79 C-102.51969719 80.94776685 -101.07013655 82.89500771 -99.7109375 84.9296875 C-94.50544281 92.50961836 -87.6070057 96.88968018 -79 100 C-76.07044802 100.42670087 -73.20709573 100.47811599 -70.25 100.4375 C-69.45722656 100.42775146 -68.66445312 100.41800293 -67.84765625 100.40795898 C-57.24596308 100.08908669 -49.48857991 96.89224256 -41.70703125 89.52734375 C-39.76923649 87.11864553 -39.76923649 87.11864553 -39.82421875 84.19140625 C-40.33285703 81.64821487 -40.99345446 79.38680849 -42 77 C-42.556875 77.556875 -43.11375 78.11375 -43.6875 78.6875 C-44.8321875 79.8321875 -44.8321875 79.8321875 -46 81 C-46.7425 81.804375 -47.485 82.60875 -48.25 83.4375 C-56.10977012 90.7613767 -62.76408898 92.44624518 -73.38671875 92.3359375 C-80.80860908 91.64590229 -85.9710948 88.4424992 -91 83.0625 C-93.55185957 79.89819413 -95.09631271 77.01638797 -96 73 C-95.01 72.01 -95.01 72.01 -94 71 C-93.52820313 72.04800781 -93.52820313 72.04800781 -93.046875 73.1171875 C-92.61890625 74.02726562 -92.1909375 74.93734375 -91.75 75.875 C-91.33234375 76.77992188 -90.9146875 77.68484375 -90.484375 78.6171875 C-89.0243885 81.42339572 -89.0243885 81.42339572 -85 83 C-77.08 75.08 -69.16 67.16 -61 59 C-64.63 58.67 -68.26 58.34 -72 58 C-72.66 57.34 -73.32 56.68 -74 56 C-70.52720596 54.84240199 -68.01961176 54.97739517 -64.36328125 55.12109375 C-63.06455078 55.16943359 -61.76582031 55.21777344 -60.42773438 55.26757812 C-59.05598467 55.32409952 -57.68423993 55.38074169 -56.3125 55.4375 C-54.92905584 55.49074051 -53.54559234 55.54348078 -52.16210938 55.59570312 C-48.77451675 55.72554117 -45.38720686 55.86051375 -42 56 C-38.95706897 66.60816272 -36.14215382 77.16731971 -34 88 C-26.89077331 88.40840238 -20.6198699 87.77525315 -14 85 C-11.7508092 83.17296773 -11.7508092 83.17296773 -11.75 80.5 C-11.7508092 77.82703227 -11.7508092 77.82703227 -14 76 C-16.66949409 75.75684344 -16.66949409 75.75684344 -19.625 75.875 C-21.12933594 75.90207031 -21.12933594 75.90207031 -22.6640625 75.9296875 C-23.43492187 75.95289063 -24.20578125 75.97609375 -25 76 C-27.7837255 65.69429284 -30.43980534 55.36334114 -33 45 C-35.97 44.34 -38.94 43.68 -42 43 C-37.43852453 37.52686034 -32.59258679 32.46045191 -27.5390625 27.44140625 C-26.74849457 26.65225327 -25.95792664 25.86310028 -25.1434021 25.05003357 C-22.63962374 22.55181339 -20.13237525 20.05710956 -17.625 17.5625 C-15.91773752 15.86025792 -14.21070391 14.15778627 -12.50390625 12.45507812 C-8.33858102 8.30072637 -4.17040781 4.14924919 0 0 Z " fill="#FBFBFB" transform="translate(159,54)"/>
<path d="M0 0 C2.70567626 1.82339052 4.53728718 3.07457436 6 6 C6.55830074 10.65860779 6.61186329 14.00062329 4.125 18.0625 C2 20 2 20 0 20 C0.33 21.010625 0.66 22.02125 1 23.0625 C2.19135938 26.71103811 2.07326959 30.1854022 2 34 C2.68102783 33.98428955 3.36205566 33.9685791 4.0637207 33.95239258 C7.14656281 33.89006778 10.22927244 33.85101742 13.3125 33.8125 C14.38435547 33.78736328 15.45621094 33.76222656 16.56054688 33.73632812 C17.58857422 33.72666016 18.61660156 33.71699219 19.67578125 33.70703125 C20.62364502 33.6913208 21.57150879 33.67561035 22.5480957 33.65942383 C25 34 25 34 26.80541992 35.33081055 C28.6799668 37.95011915 28.45467968 39.8821965 28 43 C26.1777011 45.15362597 24.69306649 45.92252028 21.89038086 46.23583984 C19.33702517 46.29569011 16.80294511 46.26103387 14.25 46.1875 C12.91775391 46.16719727 12.91775391 46.16719727 11.55859375 46.14648438 C9.37177422 46.11121309 7.18620034 46.06192752 5 46 C5.33 48.31 5.66 50.62 6 53 C6.86278564 52.98428955 7.72557129 52.9685791 8.61450195 52.95239258 C11.81809267 52.90124045 15.02147515 52.8636384 18.2253418 52.83520508 C19.61147919 52.82012603 20.99756894 52.7996595 22.38354492 52.77368164 C24.37658146 52.73726284 26.36996723 52.72186982 28.36328125 52.70703125 C29.56251221 52.6913208 30.76174316 52.67561035 31.99731445 52.65942383 C35 53 35 53 36.84838867 54.34155273 C42.32312144 62.22577145 43.2716521 75.65120908 45 85 C45.66 84.67 46.32 84.34 47 84 C49.05859375 83.796875 49.05859375 83.796875 51.4375 83.75 C52.61119141 83.71132812 52.61119141 83.71132812 53.80859375 83.671875 C56.52114994 84.07803315 57.36620852 84.83535513 59 87 C59.375 89.5 59.375 89.5 59 92 C55.37215903 96.57223131 49.2218751 97.5945627 43.671875 98.29296875 C38.69463357 98.48652814 38.69463357 98.48652814 36.39135742 96.87329102 C34.45986824 94.27277926 33.93799403 91.79566945 33.17578125 88.65234375 C32.86962891 87.40775391 32.56347656 86.16316406 32.24804688 84.88085938 C31.93617458 83.56641179 31.62432589 82.2519586 31.3125 80.9375 C30.98985531 79.61891443 30.66629743 78.30055195 30.34179688 76.98242188 C28 67.35059635 28 67.35059635 28 65 C26.71367676 65.0314209 26.71367676 65.0314209 25.40136719 65.06347656 C22.21081528 65.13176527 19.02063654 65.18185513 15.82958984 65.21972656 C14.4502332 65.23980642 13.07096131 65.26707666 11.69189453 65.30175781 C9.70643021 65.35042817 7.72033746 65.37086418 5.734375 65.390625 C3.94338379 65.4220459 3.94338379 65.4220459 2.11621094 65.45410156 C-1 65 -1 65 -3.27783203 63.59277344 C-5.86483319 59.69796875 -6.45608707 55.67968495 -7.2890625 51.125 C-7.47842377 50.16352051 -7.66778503 49.20204102 -7.86288452 48.21142578 C-8.46481036 45.1435678 -9.04594724 42.07225002 -9.625 39 C-10.21448655 35.92851542 -10.80836279 32.85798807 -11.40853882 29.78857422 C-11.78061222 27.88009133 -12.14596173 25.97028239 -12.5038147 24.05908203 C-12.67093964 23.19138184 -12.83806458 22.32368164 -13.01025391 21.4296875 C-13.1536319 20.66897949 -13.29700989 19.90827148 -13.44473267 19.12451172 C-14.03088573 16.88182792 -14.94913783 15.05851874 -16 13 C-16.57137218 9.78603147 -16.56365595 7.8677101 -14.76171875 5.09375 C-10.18439743 -0.44901131 -7.28279566 -1.63235075 0 0 Z " fill="#030303" transform="translate(89,45)"/>
<path d="M0 0 C0.99 0.33 1.98 0.66 3 1 C4.48364057 5.97455955 4.48364057 5.97455955 4 9 C2.2734375 10.66796875 2.2734375 10.66796875 -0.0625 12.25 C-6.0011252 16.33280483 -8.74384196 21.21449827 -11 28 C-12.52395827 36.56488177 -10.19852569 44.70244183 -5.75 52.0703125 C-1.93419964 57.07855047 3.00357659 60.17850579 9 62 C19.13961873 63.32559236 27.20542459 61.60551359 35.8125 56.25 C38.80273444 53.17433029 40.88205347 49.71316583 43 46 C45.81686114 48.81686114 46.41349507 51.46172286 47.1171875 55.33203125 C46.96730102 58.74444671 46.08191455 59.85415635 43.75 62.3125 C33.40220026 71.18717548 22.47088003 73.0243068 9.23535156 72.26953125 C0.7278766 71.24372824 -7.44511425 65.32998609 -13 59 C-14.98540739 56.12063955 -16.53405238 53.17066702 -18 50 C-18.3196875 49.39800781 -18.639375 48.79601562 -18.96875 48.17578125 C-22.47064298 40.70183373 -22.12489071 31.57020815 -20.19140625 23.71484375 C-16.4633207 13.71738249 -9.23065581 5.35378037 0 0 Z " fill="#070707" transform="translate(73,83)"/>
<path d="M0 0 C0.28875 0.639375 0.5775 1.27875 0.875 1.9375 C1.82823451 4.15206079 1.82823451 4.15206079 4 5 C6.0374763 5.22858114 8.08040303 5.41024278 10.125 5.5625 C11.76855469 5.68818359 11.76855469 5.68818359 13.4453125 5.81640625 C14.70988281 5.90728516 14.70988281 5.90728516 16 6 C11.03805145 11.99500997 5.6523376 17.46427037 0.125 22.9375 C-0.75414063 23.81212891 -1.63328125 24.68675781 -2.5390625 25.58789062 C-4.6904346 27.72757048 -6.84411792 29.86486597 -9 32 C-12.27817317 30.47303608 -13.79693209 29.30663885 -15.6875 26.1875 C-16.10386719 25.52105469 -16.52023438 24.85460937 -16.94921875 24.16796875 C-18.16497912 21.65961557 -18.77451764 19.78924272 -19 17 C-17.5847168 14.87182617 -17.5847168 14.87182617 -15.44921875 12.79296875 C-14.68802734 12.04208984 -13.92683594 11.29121094 -13.14257812 10.51757812 C-12.33240234 9.74865234 -11.52222656 8.97972656 -10.6875 8.1875 C-9.88892578 7.39923828 -9.09035156 6.61097656 -8.26757812 5.79882812 C-2.30808983 0 -2.30808983 0 0 0 Z " fill="#050505" transform="translate(83,106)"/>
<path d="M0 0 C1.875 0.3125 1.875 0.3125 4 1 C6.32749345 4.49124017 6.50299316 5.89222251 6 10 C4.1329009 12.30275556 2.64352259 13.67823871 0 15 C-2.88370333 15.07194869 -5.74239664 15.09291708 -8.625 15.0625 C-9.82769531 15.05573242 -9.82769531 15.05573242 -11.0546875 15.04882812 C-13.03649006 15.03703168 -15.01825433 15.01909605 -17 15 C-16.67 15.66 -16.34 16.32 -16 17 C-9.73 17.33 -3.46 17.66 3 18 C3 18.33 3 18.66 3 19 C-3.93 19 -10.86 19 -18 19 C-18.33 17.02 -18.66 15.04 -19 13 C-18.16021606 12.970271 -18.16021606 12.970271 -17.3034668 12.93994141 C-14.76434146 12.84462217 -12.22603112 12.73497247 -9.6875 12.625 C-8.80642578 12.5940625 -7.92535156 12.563125 -7.01757812 12.53125 C-6.17001953 12.49257812 -5.32246094 12.45390625 -4.44921875 12.4140625 C-3.66893311 12.3826416 -2.88864746 12.3512207 -2.0847168 12.31884766 C0.30155768 12.10412111 0.30155768 12.10412111 3 10 C3.45892595 6.48156769 3.41140736 4.65139498 1.5 1.625 C1.005 1.08875 0.51 0.5525 0 0 Z " fill="#EBEBEB" transform="translate(113,78)"/>
<path d="M0 0 C1.98240508 2.97360762 3.83594021 6.00431483 5.68359375 9.0625 C6.96748617 10.95214581 8.33353001 12.44527581 10 14 C9.01 14.33 8.02 14.66 7 15 C3.20433953 10.96561874 0.1686238 7.58342485 -1 2 C-0.67 1.34 -0.34 0.68 0 0 Z " fill="#DCDCDC" transform="translate(64,125)"/>
<path d="M0 0 C2.17581687 2.84881728 4.20937999 5.76084088 6.1875 8.75 C6.71730469 9.54921875 7.24710938 10.3484375 7.79296875 11.171875 C8.19128906 11.77515625 8.58960938 12.3784375 9 13 C6 13 6 13 4.39453125 11.42578125 C3.87246094 10.72839844 3.35039063 10.03101563 2.8125 9.3125 C2.01779297 8.28576172 2.01779297 8.28576172 1.20703125 7.23828125 C-0.20203314 4.62535602 -0.2305617 2.92557181 0 0 Z " fill="#DADADA" transform="translate(55,133)"/>
<path d="M0 0 C1.875 0.3125 1.875 0.3125 4 1 C6.29013653 4.4352048 6.17842973 5.985331 6 10 C3.75421292 7.75421292 3.14349581 5.930208 2 3 C1.34 2.01 0.68 1.02 0 0 Z " fill="#DADADA" transform="translate(113,78)"/>
</svg>
